<svg width="307" height="365" viewBox="0 0 307 365" fill="none" xmlns="http://www.w3.org/2000/svg">
<path d="M45.4014 200.011L45.4014 -135.642C45.4014 -140.828 49.6049 -145.031 54.7903 -145.031L257.772 -145.031C262.957 -145.031 267.161 -140.828 267.161 -135.642L267.161 200.011C267.161 205.196 262.957 209.4 257.772 209.4L54.7903 209.4C49.605 209.4 45.4014 205.196 45.4014 200.011Z" fill="url(#paint0_linear_2_2406)" stroke="#FFEEE9" stroke-width="5.67781"/>
<path fill-rule="evenodd" clip-rule="evenodd" d="M58.4209 159.328L58.4209 130.596L65.9571 130.596L65.9571 139.631C63.5456 140.074 61.7185 142.187 61.7185 144.727C61.7185 147.266 63.5456 149.379 65.9571 149.822L65.9571 159.328L58.4209 159.328ZM67.8412 149.823L67.8412 159.328L74.9066 159.328L74.9066 130.596L67.8412 130.596L67.8412 139.631C70.2532 140.074 72.0809 142.187 72.0809 144.727C72.0809 147.267 70.2532 149.38 67.8412 149.823ZM67.8412 141.795C69.0811 142.192 69.9786 143.355 69.9786 144.727C69.9786 146.099 69.0811 147.261 67.8412 147.659L67.8412 141.795ZM65.9571 141.795L65.9571 147.659C64.7178 147.261 63.8208 146.098 63.8208 144.727C63.8208 143.355 64.7178 142.193 65.9571 141.795Z" fill="#A3BBDC"/>
<rect x="58.4209" y="118.683" width="192.016" height="16.8189" transform="rotate(-90 58.4209 118.683)" fill="white"/>
<path d="M51.0811 200.01L51.0811 -135.643C51.0811 -137.691 52.7413 -139.351 54.7893 -139.351L257.771 -139.351C259.819 -139.351 261.479 -137.691 261.479 -135.643L261.479 200.01C261.479 202.058 259.819 203.719 257.771 203.719L54.7893 203.719C52.7413 203.719 51.0811 202.058 51.0811 200.01ZM41.3786 200.01C41.3786 207.417 47.3828 213.421 54.7893 213.421L257.771 213.421C265.177 213.421 271.182 207.417 271.182 200.01L271.182 -135.643C271.182 -143.049 265.177 -149.053 257.771 -149.053L54.7893 -149.053C47.3828 -149.053 41.3786 -143.049 41.3786 -135.643L41.3786 200.01Z" fill="white" stroke="#FFEEE9" stroke-width="2.36575"/>
<g opacity="0.25">
<rect opacity="0.5" x="88.2317" y="118.774" width="15.4864" height="10.3202" transform="rotate(-90 88.2317 118.774)" fill="#5E89C2" stroke="#FFEEE9" stroke-width="0.473151"/>
<rect opacity="0.5" x="88.2317" y="94.8342" width="104.86" height="10.3202" transform="rotate(-90 88.2317 94.8342)" fill="#5E89C2" stroke="#FFEEE9" stroke-width="0.473151"/>
<rect opacity="0.5" x="110.899" y="118.774" width="15.4864" height="10.3202" transform="rotate(-90 110.899 118.774)" fill="#5E89C2" stroke="#FFEEE9" stroke-width="0.473151"/>
<rect opacity="0.5" x="110.899" y="94.8347" width="104.86" height="10.3202" transform="rotate(-90 110.899 94.8347)" fill="#5E89C2" stroke="#FFEEE9" stroke-width="0.473151"/>
<rect opacity="0.5" x="133.565" y="118.774" width="15.4864" height="10.3202" transform="rotate(-90 133.565 118.774)" fill="#5E89C2" stroke="#FFEEE9" stroke-width="0.473151"/>
<rect opacity="0.5" x="133.565" y="94.8347" width="104.86" height="10.3202" transform="rotate(-90 133.565 94.8347)" fill="#5E89C2" stroke="#FFEEE9" stroke-width="0.473151"/>
<rect opacity="0.5" x="156.231" y="118.774" width="15.4864" height="10.3202" transform="rotate(-90 156.231 118.774)" fill="#5E89C2" stroke="#FFEEE9" stroke-width="0.473151"/>
<rect opacity="0.5" x="156.231" y="94.8347" width="104.86" height="10.3202" transform="rotate(-90 156.231 94.8347)" fill="#5E89C2" stroke="#FFEEE9" stroke-width="0.473151"/>
<rect opacity="0.5" x="178.896" y="118.774" width="15.4864" height="10.3202" transform="rotate(-90 178.896 118.774)" fill="#5E89C2" stroke="#FFEEE9" stroke-width="0.473151"/>
<rect opacity="0.5" x="178.896" y="94.8347" width="104.86" height="10.3202" transform="rotate(-90 178.896 94.8347)" fill="#5E89C2" stroke="#FFEEE9" stroke-width="0.473151"/>
<rect opacity="0.5" x="201.562" y="118.774" width="15.4864" height="10.3202" transform="rotate(-90 201.562 118.774)" fill="#5E89C2" stroke="#FFEEE9" stroke-width="0.473151"/>
<rect opacity="0.5" x="201.562" y="94.8347" width="104.86" height="10.3202" transform="rotate(-90 201.562 94.8347)" fill="#5E89C2" stroke="#FFEEE9" stroke-width="0.473151"/>
</g>
<rect x="249.036" y="207.682" width="351.095" height="15.4173" transform="rotate(-90 249.036 207.682)" fill="white"/>
<path d="M240.397 278.953C246.499 278.953 251.445 284.135 251.445 290.526L251.445 608.205C251.445 614.596 246.499 619.778 240.397 619.778L56.9897 619.778C50.8878 619.778 45.9411 614.596 45.9411 608.205L45.9411 290.526C45.9411 284.135 50.8878 278.953 56.9898 278.953L240.397 278.953Z" fill="#E8EFFB"/>
<path d="M243.503 290.526L243.503 608.205C243.503 610.094 242.055 611.521 240.397 611.521L56.9897 611.52C55.3312 611.52 53.8839 610.094 53.8839 608.205L53.8839 290.526C53.8839 288.637 55.3312 287.211 56.9897 287.211L240.397 287.211C242.055 287.211 243.503 288.637 243.503 290.526ZM252.759 290.526C252.759 283.467 247.281 277.64 240.397 277.64L56.9897 277.64C50.1056 277.64 44.6275 283.467 44.6275 290.526L44.6275 608.205C44.6275 615.264 50.1055 621.092 56.9897 621.092L240.397 621.092C247.281 621.092 252.759 615.264 252.759 608.205L252.759 290.526Z" fill="white" stroke="#E8EFFB" stroke-width="2.62721"/>
<g clip-path="url(#clip0_2_2406)">
<rect x="237.635" y="295.734" width="41.6628" height="15.4681" transform="rotate(90 237.635 295.734)" fill="#171C60"/>
<rect x="237.635" y="324.667" width="12.7303" height="15.4681" transform="rotate(90 237.635 324.667)" fill="#FF5326"/>
<rect x="237.635" y="309.621" width="15.0449" height="15.4681" transform="rotate(90 237.635 309.621)" fill="white"/>
</g>
<rect x="237.635" y="352.442" width="184.589" height="15.4681" rx="2.74257" transform="rotate(90 237.635 352.442)" fill="#A3BBDC"/>
<rect opacity="0.5" x="219.405" y="352.442" width="184.589" height="5.52431" rx="2.74257" transform="rotate(90 219.405 352.442)" fill="#A3BBDC"/>
<g style="mix-blend-mode:multiply">
<path fill-rule="evenodd" clip-rule="evenodd" d="M168.246 350.18C171.567 344.765 171.567 337.946 168.246 332.531L165.019 327.27C160.255 319.501 160.255 309.717 165.019 301.948L168.246 296.686C171.567 291.272 171.567 284.452 168.246 279.037L162.816 270.183C158.051 262.414 158.051 252.63 162.816 244.861L167.77 236.783C168.562 235.492 170.25 235.087 171.541 235.878L173.126 236.849C174.418 237.641 174.823 239.33 174.031 240.622L169.078 248.698C165.757 254.113 165.757 260.932 169.078 266.347L174.508 275.201C179.273 282.97 179.273 292.754 174.508 300.523L171.282 305.784C167.961 311.199 167.961 318.018 171.282 323.433L174.508 328.694C179.273 336.463 179.273 346.248 174.508 354.017L171.691 358.61C168.277 364.176 168.666 371.273 172.667 376.433C178.539 384.006 179.109 394.421 174.099 402.589L170.044 409.201C169.252 410.492 167.564 410.897 166.273 410.106L164.688 409.135C163.396 408.343 162.99 406.654 163.783 405.363L167.837 398.752C171.25 393.186 170.862 386.09 166.861 380.93C160.989 373.357 160.419 362.942 165.429 354.774L168.246 350.18Z" fill="#A3BBDC"/>
<path fill-rule="evenodd" clip-rule="evenodd" d="M139.613 350.669C142.934 345.255 142.934 338.435 139.613 333.021L136.386 327.759C131.621 319.99 131.621 310.206 136.386 302.437L139.613 297.176C142.934 291.761 142.934 284.942 139.613 279.527L134.183 270.673C129.418 262.904 129.418 253.119 134.183 245.35L139.137 237.272C139.929 235.981 141.617 235.576 142.908 236.367L144.493 237.339C145.785 238.13 146.19 239.819 145.398 241.111L140.445 249.187C137.124 254.602 137.124 261.421 140.445 266.836L145.875 275.69C150.64 283.459 150.64 293.243 145.875 301.012L142.648 306.274C139.327 311.688 139.327 318.508 142.648 323.923L145.875 329.184C150.64 336.953 150.64 346.737 145.875 354.506L143.058 359.1C139.644 364.666 140.033 371.762 144.034 376.922C149.905 384.496 150.475 394.91 145.466 403.078L141.41 409.691C140.619 410.982 138.931 411.387 137.64 410.596L136.054 409.624C134.762 408.833 134.357 407.144 135.149 405.852L139.203 399.242C142.617 393.676 142.229 386.579 138.228 381.419C132.356 373.846 131.786 363.431 136.795 355.263L139.613 350.669Z" fill="#A3BBDC"/>
<path fill-rule="evenodd" clip-rule="evenodd" d="M110.98 350.18C114.3 344.765 114.3 337.946 110.98 332.531L107.753 327.27C102.988 319.501 102.988 309.717 107.753 301.948L110.98 296.686C114.3 291.272 114.3 284.452 110.98 279.037L105.549 270.183C100.784 262.414 100.784 252.63 105.549 244.861L110.504 236.783C111.295 235.492 112.983 235.087 114.274 235.878L115.86 236.849C117.152 237.641 117.557 239.33 116.765 240.622L111.811 248.698C108.491 254.113 108.491 260.932 111.811 266.347L117.242 275.201C122.007 282.97 122.007 292.754 117.242 300.523L114.015 305.784C110.694 311.199 110.694 318.018 114.015 323.433L117.242 328.694C122.007 336.463 122.007 346.248 117.242 354.017L114.424 358.61C111.011 364.176 111.399 371.273 115.4 376.433C121.272 384.006 121.842 394.421 116.832 402.589L112.777 409.201C111.985 410.492 110.297 410.897 109.006 410.106L107.421 409.135C106.129 408.343 105.724 406.654 106.516 405.363L110.57 398.752C113.984 393.186 113.595 386.09 109.594 380.93C103.723 373.357 103.152 362.942 108.162 354.774L110.98 350.18Z" fill="#A3BBDC"/>
</g>
<defs>
<linearGradient id="paint0_linear_2_2406" x1="139.363" y1="207.683" x2="139.363" y2="-140.609" gradientUnits="userSpaceOnUse">
<stop stop-color="#FFEEE9"/>
<stop offset="0.320908" stop-color="#ECEFF8"/>
<stop offset="0.552327" stop-color="#E8EFFB"/>
<stop offset="0.805998" stop-color="#ECEFF8"/>
<stop offset="1" stop-color="#FFEEE9"/>
</linearGradient>
<clipPath id="clip0_2_2406">
<rect x="237.635" y="295.734" width="41.6629" height="15.4681" rx="2.74257" transform="rotate(90 237.635 295.734)" fill="white"/>
</clipPath>
</defs>
</svg>
