<svg width="16" height="11" viewBox="0 0 16 11" fill="none" xmlns="http://www.w3.org/2000/svg">
<path d="M11.6729 0.759866L15.787 4.87394C16.071 5.15796 16.071 5.61844 15.787 5.90246L11.6729 10.0165C11.3889 10.3006 10.9284 10.3006 10.6444 10.0165C10.3604 9.73252 10.3604 9.27203 10.6444 8.98802L13.5169 6.11547L0.727272 6.11547C0.325611 6.11547 -4.84694e-07 5.78986 -4.4958e-07 5.3882C-4.14466e-07 4.98654 0.325611 4.66093 0.727273 4.66093L13.5169 4.66093L10.6444 1.78838C10.3604 1.50437 10.3604 1.04388 10.6444 0.759866C10.9284 0.475848 11.3889 0.475848 11.6729 0.759866Z" fill="#171C60"/>
</svg>
