<svg width="60" height="61" viewBox="0 0 60 61" fill="none" xmlns="http://www.w3.org/2000/svg">
<path d="M42.9056 12.0074L59.2012 28.303C60.2663 29.3681 60.2663 31.0949 59.2012 32.16L42.9056 48.4556C42.3198 49.0414 41.3701 49.0414 40.7843 48.4556L39.0486 46.72C38.4629 46.1342 38.4629 45.1844 39.0486 44.5986L50.6885 32.9588L1.5 32.9588C0.671571 32.9588 -1.86564e-06 32.2872 -1.79322e-06 31.4588L-1.57863e-06 29.0042C-1.50621e-06 28.1758 0.671572 27.5042 1.5 27.5042L50.6885 27.5042L39.0486 15.8644C38.4629 15.2786 38.4629 14.3289 39.0486 13.7431L40.7843 12.0074C41.3701 11.4217 42.3198 11.4217 42.9056 12.0074Z" fill="#F6F7F9"/>
</svg>
