<svg width="268" height="365" viewBox="0 0 268 365" fill="none" xmlns="http://www.w3.org/2000/svg">
<path d="M36.2516 482.854C30.3719 482.854 25.6055 477.861 25.6055 471.703L25.6055 165.598C25.6055 159.439 30.3719 154.446 36.2516 154.446L212.976 154.446C218.856 154.446 223.623 159.439 223.623 165.598L223.623 471.703C223.623 477.861 218.856 482.854 212.976 482.854L36.2516 482.854Z" fill="#E8EFFB"/>
<path d="M33.2589 471.703L33.2589 165.598C33.2589 163.777 34.6534 162.403 36.2516 162.403L212.977 162.403C214.575 162.403 215.969 163.777 215.969 165.598L215.969 471.703C215.969 473.523 214.575 474.897 212.977 474.897L36.2516 474.897C34.6534 474.897 33.2589 473.523 33.2589 471.703ZM24.3397 471.703C24.3397 478.504 29.6182 484.12 36.2516 484.12L212.977 484.12C219.61 484.12 224.888 478.504 224.888 471.703L224.888 165.598C224.888 158.796 219.61 153.181 212.977 153.181L36.2516 153.181C29.6182 153.181 24.3397 158.796 24.3397 165.598L24.3397 471.703Z" fill="white" stroke="#E8EFFB" stroke-width="2.53149"/>
<rect x="38.9126" y="210.76" width="40.1449" height="14.9045" rx="2.64266" transform="rotate(-90 38.9126 210.76)" fill="#171C60"/>
<rect x="38.9126" y="412.042" width="177.864" height="14.9045" rx="2.64266" transform="rotate(-90 38.9126 412.042)" fill="#A3BBDC"/>
<rect opacity="0.5" x="56.4785" y="412.042" width="177.864" height="5.32304" rx="2.64266" transform="rotate(-90 56.4785 412.042)" fill="#A3BBDC"/>
<g opacity="0.25">
<rect opacity="0.5" x="125.725" y="353.967" width="73.3337" height="13.2133" rx="2.64266" transform="rotate(-90 125.725 353.967)" fill="#A3BBDC"/>
<rect opacity="0.5" x="143.204" y="354.297" width="73.3337" height="12.5526" rx="2.64266" transform="rotate(-90 143.204 354.297)" fill="#A3BBDC"/>
<rect opacity="0.5" x="159.72" y="353.637" width="72.673" height="13.2133" rx="2.64266" transform="rotate(-90 159.72 353.637)" fill="#A3BBDC"/>
<rect opacity="0.5" x="176.897" y="353.637" width="72.673" height="12.5526" rx="2.64266" transform="rotate(-90 176.897 353.637)" fill="#A3BBDC"/>
<rect opacity="0.5" x="176.954" y="241.984" width="65.2355" height="12.7753" rx="2.64266" transform="rotate(-90 176.954 241.984)" fill="#A3BBDC"/>
<rect opacity="0.5" x="75.8159" y="354.055" width="44.0479" height="12.7753" rx="2.64266" transform="rotate(-90 75.8159 354.055)" fill="#A3BBDC"/>
<rect opacity="0.5" x="102.242" y="354.297" width="73.3337" height="13.2133" rx="2.64266" transform="rotate(-90 102.242 354.297)" fill="#A3BBDC"/>
<rect opacity="0.5" x="195.095" y="241.655" width="56.872" height="7.45226" rx="2.64266" transform="rotate(-90 195.095 241.655)" fill="#A3BBDC"/>
</g>
<g style="mix-blend-mode:multiply">
<path fill-rule="evenodd" clip-rule="evenodd" d="M105.774 414.222C102.574 419.44 102.574 426.011 105.774 431.228L108.883 436.298C113.474 443.784 113.474 453.211 108.883 460.697L105.774 465.767C102.574 470.984 102.574 477.555 105.774 482.773L111.006 491.304C115.598 498.79 115.598 508.218 111.006 515.704L106.232 523.488C105.47 524.732 103.843 525.122 102.599 524.36L101.072 523.424C99.8268 522.661 99.4363 521.034 100.2 519.789L104.972 512.007C108.172 506.79 108.172 500.219 104.972 495.001L99.7398 486.47C95.1486 478.984 95.1486 469.556 99.7398 462.07L102.849 457C106.049 451.783 106.049 445.212 102.849 439.995L99.7398 434.925C95.1486 427.439 95.1486 418.011 99.7398 410.525L102.455 406.099C105.744 400.736 105.369 393.898 101.514 388.926C95.8565 381.628 95.3071 371.593 100.134 363.723L104.042 357.351C104.805 356.107 106.431 355.717 107.675 356.479L109.203 357.415C110.448 358.178 110.838 359.806 110.075 361.05L106.168 367.419C102.879 372.783 103.254 379.62 107.109 384.593C112.766 391.89 113.316 401.925 108.489 409.796L105.774 414.222Z" fill="#A3BBDC"/>
<path fill-rule="evenodd" clip-rule="evenodd" d="M133.364 413.751C130.164 418.968 130.164 425.539 133.364 430.757L136.473 435.826C141.064 443.312 141.065 452.74 136.473 460.226L133.364 465.295C130.164 470.513 130.164 477.084 133.364 482.301L138.597 490.833C143.188 498.319 143.188 507.747 138.597 515.233L133.822 523.017C133.06 524.26 131.433 524.65 130.189 523.888L128.662 522.952C127.417 522.19 127.026 520.562 127.79 519.317L132.562 511.536C135.762 506.318 135.762 499.747 132.562 494.53L127.33 485.998C122.739 478.512 122.739 469.084 127.33 461.598L130.439 456.529C133.639 451.311 133.639 444.74 130.439 439.523L127.33 434.453C122.739 426.967 122.739 417.54 127.33 410.054L130.045 405.627C133.334 400.264 132.96 393.426 129.104 388.454C123.447 381.157 122.897 371.122 127.724 363.251L131.632 356.88C132.395 355.636 134.021 355.246 135.265 356.008L136.793 356.944C138.038 357.706 138.428 359.334 137.665 360.579L133.759 366.948C130.469 372.311 130.844 379.149 134.699 384.121C140.357 391.418 140.906 401.454 136.079 409.324L133.364 413.751Z" fill="#A3BBDC"/>
<path fill-rule="evenodd" clip-rule="evenodd" d="M160.954 414.222C157.754 419.44 157.754 426.011 160.954 431.228L164.063 436.298C168.655 443.784 168.655 453.211 164.063 460.697L160.954 465.767C157.754 470.984 157.754 477.555 160.954 482.773L166.187 491.304C170.778 498.79 170.778 508.218 166.187 515.704L161.413 523.488C160.65 524.732 159.023 525.122 157.779 524.36L156.252 523.424C155.007 522.661 154.616 521.034 155.38 519.789L160.153 512.007C163.353 506.79 163.353 500.219 160.153 495.001L154.92 486.47C150.329 478.984 150.329 469.556 154.92 462.07L158.029 457C161.229 451.783 161.229 445.212 158.029 439.995L154.92 434.925C150.329 427.439 150.329 418.011 154.92 410.525L157.635 406.099C160.924 400.736 160.55 393.898 156.695 388.926C151.037 381.628 150.487 371.593 155.315 363.723L159.222 357.351C159.985 356.107 161.611 355.717 162.856 356.479L164.383 357.415C165.628 358.178 166.018 359.806 165.255 361.05L161.349 367.419C158.059 372.783 158.434 379.62 162.289 384.593C167.947 391.89 168.496 401.925 163.669 409.796L160.954 414.222Z" fill="#A3BBDC"/>
</g>
<path d="M170.927 220.242L170.931 220.248C171.162 220.561 171.389 220.87 171.612 221.174C171.389 221.477 171.162 221.786 170.931 222.1L170.927 222.105C169.353 224.247 167.608 226.623 165.645 229.135C162.571 224.061 158.851 218.775 154.249 213.658L153.617 212.954C149.454 208.254 144.541 203.507 138.536 199.252C127.418 191.373 112.209 184.99 90.7463 185.1L89.7376 185.105L89.4843 186.083C86.2216 198.683 84.9025 213.745 84.6848 221.135L84.6836 221.174L84.6848 221.212C84.9025 228.602 86.2216 243.665 89.4843 256.264L89.7376 257.242L90.7463 257.247C112.209 257.357 127.418 250.974 138.536 243.095C143.242 239.76 147.279 236.123 150.808 232.442C152.648 235.133 154.276 237.824 155.745 240.468C141.517 254.798 119.414 268.818 83.255 266.404C77.8766 251.278 76.0513 230.124 75.8163 221.187L75.8159 221.174L75.8163 221.161C76.0513 212.224 77.8766 191.069 83.255 175.943C111.051 174.087 130.517 181.942 144.48 192.147C154.228 199.272 161.33 207.569 166.724 214.607C168.256 216.606 169.648 218.501 170.927 220.242Z" fill="#17EB79"/>
<path fill-rule="evenodd" clip-rule="evenodd" d="M103.471 194.205C103.828 193.88 104.38 193.905 104.705 194.262L133.51 225.901C133.83 226.253 133.811 226.797 133.466 227.125L118.294 241.572C117.944 241.905 117.391 241.891 117.059 241.541L112.242 236.468C111.909 236.117 111.923 235.563 112.273 235.23L121.244 226.688C121.589 226.36 121.608 225.816 121.288 225.464L98.2486 200.158C97.9235 199.801 97.949 199.248 98.3056 198.922L103.471 194.205Z" fill="#17EB79"/>
<path d="M216.448 -196.938L216.448 85.7957C216.448 90.1635 212.907 93.7043 208.539 93.7043L37.5595 93.7043C33.1917 93.7043 29.6508 90.1635 29.6508 85.7957L29.6508 -196.938C29.6508 -201.306 33.1917 -204.847 37.5595 -204.847L208.539 -204.847C212.907 -204.847 216.448 -201.306 216.448 -196.938Z" fill="#FFEEE9" stroke="#FFEEE9" stroke-width="4.78265"/>
<rect x="205.32" y="-141.579" width="222.968" height="13.8589" transform="rotate(90 205.32 -141.579)" fill="#A3BBDC" stroke="#FFEEE9" stroke-width="0.398554"/>
<path d="M211.663 -196.938L211.662 85.7957C211.662 87.5208 210.264 88.9193 208.539 88.9193L37.5595 88.9193C35.8344 88.9193 34.4359 87.5208 34.4359 85.7957L34.4359 -196.938C34.4359 -198.663 35.8344 -200.062 37.5595 -200.062L208.539 -200.062C210.264 -200.062 211.663 -198.663 211.663 -196.938ZM219.835 -196.938C219.835 -203.177 214.778 -208.235 208.539 -208.235L37.5595 -208.235C31.3207 -208.235 26.2631 -203.177 26.2631 -196.938L26.2631 85.7957C26.2631 92.0345 31.3207 97.092 37.5595 97.092L208.539 97.092C214.778 97.092 219.835 92.0345 219.835 85.7957L219.835 -196.938Z" fill="white" stroke="#FFEEE9" stroke-width="1.99277"/>
<g style="mix-blend-mode:screen">
<path fill-rule="evenodd" clip-rule="evenodd" d="M205.975 132.082C178.211 132.082 155.703 109.575 155.703 81.8108C155.703 54.0466 178.211 31.5394 205.975 31.5394C233.739 31.5394 256.246 54.0466 256.246 81.8108C256.246 109.575 233.739 132.082 205.975 132.082ZM205.975 135.624C176.255 135.624 152.162 111.531 152.162 81.8108C152.162 52.0905 176.255 27.9976 205.975 27.9976C235.695 27.9976 259.788 52.0906 259.788 81.8108C259.788 111.531 235.695 135.624 205.975 135.624ZM163.982 81.8108C163.982 105.003 182.783 123.803 205.975 123.803C229.167 123.803 247.967 105.003 247.967 81.8108C247.967 58.619 229.167 39.8184 205.975 39.8184C182.783 39.8184 163.982 58.619 163.982 81.8108ZM160.441 81.8108C160.441 106.959 180.827 127.345 205.975 127.345C231.123 127.345 251.509 106.959 251.509 81.8108C251.509 56.6629 231.123 36.2766 205.975 36.2766C180.827 36.2766 160.441 56.6629 160.441 81.8108ZM173.296 81.8107C173.296 99.8586 187.927 114.489 205.975 114.489C224.023 114.489 238.653 99.8586 238.653 81.8107C238.653 63.7628 224.023 49.132 205.975 49.132C187.927 49.132 173.296 63.7628 173.296 81.8107ZM169.754 81.8107C169.754 101.815 185.971 118.031 205.975 118.031C225.979 118.031 242.195 101.815 242.195 81.8107C242.195 61.8067 225.979 45.5902 205.975 45.5902C185.971 45.5902 169.754 61.8067 169.754 81.8107ZM181.575 81.8109C181.575 95.2865 192.499 106.211 205.975 106.211C219.45 106.211 230.374 95.2865 230.374 81.8109C230.374 68.3353 219.45 57.4112 205.975 57.4112C192.499 57.4112 181.575 68.3353 181.575 81.8109ZM178.033 81.8109C178.033 97.2426 190.543 109.752 205.975 109.752C221.406 109.752 233.916 97.2426 233.916 81.8109C233.916 66.3793 221.406 53.8694 205.975 53.8694C190.543 53.8694 178.033 66.3793 178.033 81.8109ZM205.975 96.8966C197.643 96.8966 190.889 90.1424 190.889 81.8108C190.889 73.4791 197.643 66.7249 205.975 66.7249C214.307 66.7249 221.061 73.4791 221.061 81.8108C221.061 90.1424 214.307 96.8966 205.975 96.8966ZM205.975 100.438C195.687 100.438 187.347 92.0985 187.347 81.8108C187.347 71.523 195.687 63.1831 205.975 63.1831C216.263 63.1831 224.602 71.523 224.602 81.8108C224.602 92.0985 216.263 100.438 205.975 100.438Z" fill="#FFA993"/>
</g>
<path d="M76.1626 36.1169L76.1592 36.1123C75.9746 35.863 75.7928 35.6174 75.6139 35.3762C75.7928 35.135 75.9746 34.8895 76.1592 34.6401L76.1626 34.6356C77.4234 32.9328 78.8214 31.0448 80.3942 29.0478C82.8567 33.0812 85.8366 37.2829 89.5227 41.3504L90.0296 41.9098C93.3638 45.6462 97.2999 49.4192 102.11 52.8019C111.016 59.0646 123.2 64.1388 140.393 64.0511L141.201 64.047L141.404 63.2697C144.017 53.2544 145.074 41.2811 145.249 35.407L145.249 35.3762L145.249 35.3455C145.074 29.4714 144.017 17.498 141.404 7.4828L141.201 6.70548L140.393 6.70135C123.2 6.61366 111.016 11.6878 102.11 17.9506C98.3399 20.6019 95.1066 23.4931 92.2792 26.4186C90.8057 24.2801 89.5012 22.1404 88.3242 20.0392C99.722 8.64768 117.428 -2.49686 146.394 -0.577577C150.702 11.4463 152.164 28.2618 152.353 35.3658L152.353 35.3762L152.353 35.3864C152.164 42.4904 150.702 59.3062 146.394 71.3301C124.127 72.8055 108.534 66.5613 97.3486 58.4494C89.5401 52.7862 83.8507 46.1908 79.5298 40.596C78.3024 39.0068 77.1875 37.501 76.1626 36.1169Z" fill="#FF8833"/>
<path fill-rule="evenodd" clip-rule="evenodd" d="M130.199 56.8134C129.914 57.0722 129.471 57.0519 129.211 56.768L106.136 31.6185C105.88 31.3388 105.895 30.9065 106.171 30.6457L118.325 19.1614C118.605 18.8967 119.049 18.9078 119.315 19.1862L123.173 23.219C123.44 23.4974 123.429 23.9377 123.148 24.2024L115.962 30.9928C115.686 31.2536 115.67 31.6859 115.927 31.9656L134.383 52.0814C134.643 52.3653 134.623 52.8053 134.337 53.0641L130.199 56.8134Z" fill="#FF8833"/>
<rect x="57.0044" y="-203.56" width="295.842" height="24.9505" transform="rotate(90 57.0044 -203.56)" fill="white"/>
<path d="M44.2945 -194.81L45.5013 -194.81L48.4465 -187.835L47.1607 -187.835L44.8907 -193.366L42.5992 -187.835L41.3134 -187.835L44.2945 -194.81ZM44.2945 -186.219L45.5013 -186.219L48.4465 -179.244L47.1607 -179.244L44.8907 -184.775L42.5992 -179.244L41.3134 -179.244L44.2945 -186.219ZM44.2945 -177.627L45.5013 -177.627L48.4465 -170.652L47.1607 -170.652L44.8907 -176.184L42.5992 -170.652L41.3134 -170.652L44.2945 -177.627ZM44.2945 -169.036L45.5013 -169.036L48.4465 -162.061L47.1607 -162.061L44.8907 -167.592L42.5992 -162.061L41.3134 -162.061L44.2945 -169.036ZM44.2945 -160.445L45.5013 -160.445L48.4465 -153.47L47.1607 -153.47L44.8907 -159.001L42.5992 -153.47L41.3134 -153.47L44.2945 -160.445ZM44.2945 -151.853L45.5013 -151.853L48.4465 -144.878L47.1607 -144.878L44.8907 -150.409L42.5992 -144.878L41.3134 -144.878L44.2945 -151.853ZM44.2945 -143.262L45.5013 -143.262L48.4465 -136.287L47.1607 -136.287L44.8907 -141.818L42.5992 -136.287L41.3134 -136.287L44.2945 -143.262ZM44.2945 -134.671L45.5013 -134.671L48.4465 -127.695L47.1607 -127.695L44.8907 -133.227L42.5992 -127.695L41.3134 -127.695L44.2945 -134.671ZM44.2945 -126.079L45.5013 -126.079L48.4465 -119.104L47.1607 -119.104L44.8907 -124.635L42.5992 -119.104L41.3134 -119.104L44.2945 -126.079ZM44.2945 -117.488L45.5013 -117.488L48.4465 -110.513L47.1607 -110.513L44.8907 -116.044L42.5992 -110.513L41.3134 -110.513L44.2945 -117.488ZM44.2945 -108.896L45.5013 -108.896L48.4465 -101.921L47.1607 -101.921L44.8907 -107.453L42.5992 -101.921L41.3134 -101.921L44.2945 -108.896ZM44.2945 -100.305L45.5013 -100.305L48.4465 -93.33L47.1607 -93.33L44.8907 -98.8612L42.5992 -93.33L41.3134 -93.33L44.2945 -100.305ZM44.2945 -91.7137L45.5013 -91.7137L48.4465 -84.7386L47.1607 -84.7386L44.8907 -90.2698L42.5992 -84.7386L41.3134 -84.7386L44.2945 -91.7137ZM44.2945 -83.1223L45.5013 -83.1223L48.4465 -76.1472L47.1607 -76.1472L44.8907 -81.6785L42.5992 -76.1472L41.3134 -76.1472L44.2945 -83.1223ZM44.2945 -74.531L45.5013 -74.531L48.4465 -67.5558L47.1607 -67.5558L44.8907 -73.0871L42.5992 -67.5558L41.3134 -67.5558L44.2945 -74.531ZM44.2945 -65.9396L45.5013 -65.9396L48.4465 -58.9645L47.1607 -58.9645L44.8907 -64.4957L42.5992 -58.9645L41.3134 -58.9645L44.2945 -65.9396ZM44.2945 -57.3482L45.5013 -57.3482L48.4465 -50.3731L47.1607 -50.3731L44.8907 -55.9043L42.5992 -50.3731L41.3134 -50.3731L44.2945 -57.3482ZM44.2945 -48.7568L45.5013 -48.7568L48.4465 -41.7817L47.1607 -41.7817L44.8907 -47.3129L42.5992 -41.7817L41.3134 -41.7817L44.2945 -48.7568ZM44.2945 -40.1654L45.5013 -40.1654L48.4465 -33.1903L47.1607 -33.1903L44.8907 -38.7216L42.5992 -33.1903L41.3134 -33.1903L44.2945 -40.1654ZM44.2945 -31.5741L45.5013 -31.5741L48.4465 -24.599L47.1607 -24.599L44.8907 -30.1302L42.5992 -24.599L41.3134 -24.599L44.2945 -31.5741ZM44.2945 -22.9827L45.5013 -22.9827L48.4465 -16.0076L47.1607 -16.0076L44.8907 -21.5388L42.5992 -16.0076L41.3134 -16.0076L44.2945 -22.9827ZM44.2945 -14.3913L45.5013 -14.3913L48.4465 -7.4162L47.1607 -7.4162L44.8907 -12.9474L42.5992 -7.4162L41.3134 -7.4162L44.2945 -14.3913ZM44.2945 -5.79993L45.5013 -5.79993L48.4465 1.17517L47.1607 1.17517L44.8907 -4.35606L42.5992 1.17517L41.3134 1.17517L44.2945 -5.79993ZM44.2945 2.79145L45.5013 2.79145L48.4465 9.76656L47.1607 9.76656L44.8907 4.23532L42.5992 9.76656L41.3134 9.76656L44.2945 2.79145ZM44.2945 11.3828L45.5013 11.3828L48.4465 18.3579L47.1607 18.3579L44.8907 12.8267L42.5992 18.3579L41.3134 18.3579L44.2945 11.3828ZM44.2945 19.9742L45.5013 19.9742L48.4465 26.9493L47.1607 26.9493L44.8907 21.4181L42.5992 26.9493L41.3134 26.9493L44.2945 19.9742ZM44.2945 28.5656L45.5013 28.5656L48.4465 35.5407L47.1607 35.5407L44.8907 30.0095L42.5992 35.5407L41.3134 35.5407L44.2945 28.5656ZM44.2945 37.157L45.5013 37.157L48.4465 44.1321L47.1607 44.1321L44.8907 38.6008L42.5992 44.1321L41.3134 44.1321L44.2945 37.157ZM44.2945 45.7483L45.5013 45.7483L48.4465 52.7235L47.1607 52.7235L44.8907 47.1922L42.5992 52.7235L41.3134 52.7235L44.2945 45.7483ZM44.2945 54.3397L45.5013 54.3397L48.4465 61.3148L47.1607 61.3148L44.8907 55.7836L42.5992 61.3148L41.3134 61.3148L44.2945 54.3397ZM44.2945 62.9311L45.5013 62.9311L48.4465 69.9062L47.1607 69.9062L44.8907 64.3749L42.5992 69.9062L41.3134 69.9062L44.2945 62.9311ZM44.2945 71.5225L45.5013 71.5225L48.4465 78.4976L47.1607 78.4976L44.8907 72.9664L42.5992 78.4976L41.3134 78.4976L44.2945 71.5225ZM44.2945 80.1139L45.5013 80.1139L48.4465 87.089L47.1607 87.089L44.8907 81.5577L42.5992 87.089L41.3134 87.089L44.2945 80.1139Z" fill="#E8EFFB"/>
</svg>
