<svg width="1366" height="7067" viewBox="0 0 1366 7067" fill="none" xmlns="http://www.w3.org/2000/svg">
<g clip-path="url(#clip0_2971_38934)">
<g opacity="0.65">
<g filter="url(#filter0_d_2971_38934)">
<path d="M778.185 -88.1102C805.978 46.2291 935.697 134.264 1074.69 111.091C1209.03 83.2978 1297.07 -46.422 1273.9 -185.419C1232.21 -398.552 1232.21 -620.925 1278.52 -829.4C1283.14 -852.572 1269.24 -880.364 1241.45 -884.986C1218.28 -889.607 1190.48 -875.711 1185.86 -847.918C1139.55 -625.544 1134.93 -393.896 1181.27 -166.906C1195.17 -78.8717 1139.58 4.50506 1056.18 18.3957C968.141 32.2921 884.765 -23.2935 866.216 -106.703C750.392 -685.822 894.009 -1274.21 1250.75 -1732.87C1264.65 -1751.39 1264.65 -1783.84 1241.48 -1797.73C1232.2 -1802.35 1222.96 -1807.01 1213.68 -1807.01C1199.79 -1807.01 1185.89 -1802.38 1176.62 -1788.49C805.971 -1311.23 662.361 -690.395 778.185 -88.1102Z" fill="white"/>
</g>
<g filter="url(#filter1_d_2971_38934)">
<path d="M1116.4 305.693C1297.08 268.625 1436.08 129.632 1473.14 -51.053C1477.76 -74.2244 1463.87 -102.017 1436.07 -106.639C1412.9 -111.26 1385.11 -97.3636 1380.49 -69.5708C1352.7 74.0426 1241.49 185.25 1097.88 213.04C1005.23 231.557 907.918 213.04 824.541 162.075C745.785 106.49 690.202 27.7361 667.029 -69.5726C639.236 -208.57 620.686 -352.183 620.686 -500.421C620.686 -528.214 602.168 -546.764 574.343 -546.764C546.55 -546.764 528 -528.246 528 -500.421C528 -347.534 541.897 -194.638 574.343 -51.0242C597.515 69.4245 666.994 171.35 768.927 240.861C875.477 305.688 995.922 328.867 1116.4 305.693Z" fill="white"/>
</g>
<g filter="url(#filter2_d_2971_38934)">
<path d="M1579.69 -250.262C1612.14 -101.991 1579.69 46.2471 1496.31 171.345C1412.94 296.443 1283.18 384.478 1139.57 416.892C1074.71 426.167 1023.74 430.788 977.397 426.167C954.226 426.167 931.054 444.685 926.433 467.856C926.433 495.649 944.951 514.199 968.122 518.82C1023.71 523.442 1079.32 518.821 1153.42 509.546C1324.84 472.478 1473.11 370.548 1570.37 226.935C1667.68 78.6637 1700.1 -97.3638 1667.68 -268.808C1584.31 -681.141 1727.92 -1112.01 2052.22 -1394.62C2070.74 -1413.14 2075.39 -1440.96 2056.84 -1459.48C2047.56 -1468.75 2033.67 -1473.37 2024.39 -1473.37C2015.12 -1473.37 2001.22 -1468.75 1991.95 -1459.48C1649.16 -1158.35 1487 -695.055 1579.68 -250.275L1579.69 -250.262Z" fill="white"/>
</g>
<g filter="url(#filter3_d_2971_38934)">
<path d="M644.328 5984.75C561.441 5583.43 334.603 5234.47 3.09944 5003.27C-18.7173 4990.19 -44.8851 4994.54 -57.9683 5012.01C-71.0522 5033.82 -66.7011 5059.99 -49.2356 5073.07C264.836 5291.18 478.594 5622.69 557.096 6002.2C578.913 6106.9 587.646 6215.95 587.646 6329.36C587.646 6355.53 605.081 6372.99 631.279 6372.99C657.447 6372.99 674.913 6355.56 674.913 6329.36C674.882 6207.22 666.149 6093.79 644.333 5984.74L644.328 5984.75Z" fill="white"/>
</g>
<g filter="url(#filter4_d_2971_38934)">
<path d="M181.937 6080.71C186.288 6102.53 190.67 6128.7 195.021 6150.51C199.372 6176.68 203.754 6202.85 208.105 6229.02C212.456 6250.83 229.922 6263.92 251.739 6263.92H260.471C282.288 6259.57 299.723 6237.75 295.372 6211.58C291.021 6185.41 286.639 6159.24 282.288 6137.43C277.937 6111.26 273.555 6089.44 269.204 6063.28C138.333 5417.69 -494.163 4994.56 -1144.12 5125.43C-1623.96 5221.39 -2003.45 5609.62 -2086.33 6093.81C-2090.68 6115.63 -2073.25 6141.8 -2051.43 6146.15C-2029.61 6150.5 -2003.44 6133.06 -1999.09 6111.25C-1920.59 5661.95 -1571.62 5299.9 -1126.67 5212.65C-524.696 5090.52 59.818 5478.74 181.957 6080.71L181.937 6080.71Z" fill="white"/>
</g>
<g filter="url(#filter5_d_2971_38934)">
<path d="M-481.105 4972.74C-502.922 4964 -529.09 4977.09 -537.822 4998.91C-546.554 5020.72 -533.47 5046.89 -511.654 5055.62C-62.3573 5199.57 273.524 5574.72 365.128 6041.46C430.548 6359.88 443.631 6687.04 404.38 7018.57C400.029 7040.38 417.464 7062.2 443.632 7066.55H447.984C469.8 7066.55 487.235 7049.12 491.617 7027.3C530.869 6687.06 517.785 6351.17 452.365 6024.02C356.43 5531.09 -1.27792 5129.79 -481.125 4972.75L-481.105 4972.74Z" fill="white"/>
</g>
<g filter="url(#filter6_d_2971_38934)">
<path fill-rule="evenodd" clip-rule="evenodd" d="M-700.167 1440.5C-708.01 1452.25 -719.76 1456.16 -731.511 1456.16L-731.501 1456.16C-739.344 1456.16 -747.16 1452.25 -755.002 1448.32C-770.688 1436.57 -774.596 1409.13 -762.845 1393.47C-555.199 1103.56 -245.723 907.679 102.943 837.176C408.515 774.488 729.744 817.581 1007.91 954.711C1027.5 962.553 1035.34 986.055 1027.5 1005.65C1019.66 1025.24 996.157 1033.08 976.563 1025.24C710.16 895.955 408.52 856.796 118.611 915.549C-210.467 982.141 -504.287 1166.28 -700.167 1440.5ZM1199.87 1064.4C1497.59 1272.03 1701.31 1585.44 1775.75 1945.86L1775.76 1945.85C1795.35 2043.79 1803.19 2145.66 1803.22 2255.35C1803.22 2278.88 1787.54 2294.54 1764.03 2294.54C1740.51 2294.54 1724.85 2278.85 1724.85 2255.35C1724.85 2153.5 1717 2055.56 1697.41 1961.53C1626.91 1620.69 1434.93 1322.96 1152.86 1127.08C1137.18 1115.33 1133.27 1091.83 1145.02 1072.24C1156.77 1056.55 1180.27 1052.65 1199.87 1064.4ZM-758.934 2455.14C-888.194 1824.41 -476.867 1209.35 153.865 1080.07C271.4 1056.56 400.681 1052.63 541.714 1068.31C565.215 1072.22 580.901 1056.56 584.809 1033.06C588.717 1013.47 573.058 993.876 549.557 989.968C400.681 970.374 263.58 974.309 138.203 1001.72C-535.623 1138.82 -974.394 1796.99 -837.278 2470.82C-817.685 2568.76 -845.121 2666.7 -915.623 2741.14C-927.374 2756.8 -927.374 2784.23 -911.715 2795.98C-903.872 2803.82 -896.057 2807.73 -884.279 2807.73C-872.528 2807.73 -864.685 2803.82 -856.842 2795.98C-770.683 2701.95 -735.404 2576.58 -758.931 2455.13L-758.934 2455.14ZM714.068 1060.48C721.91 1040.88 745.411 1029.13 765.005 1036.97L764.987 1036.99C1195.94 1178.02 1517.19 1538.43 1603.35 1981.13C1662.11 2274.94 1673.86 2576.6 1638.6 2882.17C1634.67 2901.77 1619.01 2917.42 1599.42 2917.42H1595.51C1572.01 2913.52 1556.35 2893.92 1560.26 2874.33C1595.51 2576.59 1583.76 2282.77 1525.01 1996.79C1442.74 1577.61 1141.08 1240.69 737.569 1111.41C717.975 1103.57 706.225 1080.07 714.068 1060.48Z" fill="white"/>
</g>
<g filter="url(#filter7_d_2971_38934)">
<path d="M1203.46 3545.4C1180.29 3536.12 1152.49 3550.02 1143.22 3573.19C1064.46 3772.39 948.636 3957.73 800.373 4110.62C781.855 4129.14 781.855 4156.97 800.373 4175.48C809.648 4184.76 818.891 4189.38 832.819 4189.38C846.716 4189.38 855.991 4184.76 865.266 4175.48C1022.78 4013.31 1147.88 3818.74 1226.64 3610.26C1235.91 3577.85 1226.63 3554.67 1203.46 3545.4Z" fill="white"/>
</g>
<g filter="url(#filter8_d_2971_38934)">
<path d="M1708.46 2581.74C1680.67 2447.4 1550.95 2359.37 1411.95 2382.54C1277.61 2410.34 1189.58 2540.05 1212.75 2679.05C1254.44 2892.18 1254.44 3114.56 1208.13 3323.03C1203.51 3346.2 1217.4 3374 1245.2 3378.62C1268.37 3383.24 1296.16 3369.34 1300.78 3341.55C1347.09 3119.18 1351.71 2887.53 1305.37 2660.54C1291.47 2572.5 1347.06 2489.13 1430.47 2475.24C1518.5 2461.34 1601.88 2516.93 1620.43 2600.34C1736.25 3179.46 1592.64 3767.84 1235.89 4226.5C1222 4245.02 1222 4277.47 1245.17 4291.36C1254.44 4295.98 1263.69 4300.64 1272.96 4300.64C1286.86 4300.64 1300.75 4296.02 1310.03 4282.12C1680.67 3804.86 1824.28 3184.03 1708.46 2581.74Z" fill="white"/>
</g>
<g filter="url(#filter9_d_2971_38934)">
<path d="M1124.71 2799.49C1120.09 2776.32 1096.92 2757.8 1073.75 2757.8C1050.58 2762.43 1032.06 2785.6 1032.06 2808.77C1092.3 3248.89 934.749 3698.3 605.826 4004.07C587.308 4022.59 587.308 4050.41 605.826 4068.93C615.101 4078.21 628.997 4082.83 638.272 4082.83C647.547 4082.83 661.444 4078.21 670.719 4068.93C1018.16 3744.63 1189.57 3267.44 1124.71 2799.5L1124.71 2799.49Z" fill="white"/>
</g>
<g filter="url(#filter10_d_2971_38934)">
<path d="M1370.25 2187.94C1189.56 2225.01 1050.57 2364 1013.5 2544.69C1008.88 2567.86 1022.78 2595.65 1050.57 2600.27C1073.74 2604.89 1101.54 2591 1106.16 2563.2C1133.95 2419.59 1245.15 2308.38 1388.77 2280.59C1481.42 2262.08 1578.73 2280.59 1662.1 2331.56C1740.86 2387.14 1796.44 2465.9 1819.62 2563.21C1847.41 2702.2 1865.96 2845.82 1865.96 2994.05C1865.96 3021.85 1884.48 3040.4 1912.3 3040.4C1940.09 3040.4 1958.64 3021.88 1958.64 2994.05C1958.64 2841.17 1944.75 2688.27 1912.3 2544.66C1889.13 2424.21 1819.65 2322.28 1717.72 2252.77C1611.17 2187.94 1490.72 2164.77 1370.25 2187.94Z" fill="white"/>
</g>
<g filter="url(#filter11_d_2971_38934)">
<path d="M906.954 2743.9C874.508 2595.62 906.954 2447.39 990.331 2322.29C1073.71 2197.19 1203.46 2109.15 1347.08 2076.74C1411.94 2067.47 1462.9 2062.84 1509.25 2067.47C1532.42 2067.47 1555.59 2048.95 1560.21 2025.78C1560.21 1997.98 1541.69 1979.43 1518.52 1974.81C1462.94 1970.19 1407.32 1974.81 1333.22 1984.09C1161.81 2021.16 1013.54 2123.08 916.271 2266.7C818.962 2414.97 786.548 2591 818.962 2762.44C902.339 3174.77 758.724 3605.64 434.426 3888.25C415.909 3906.77 411.255 3934.59 429.805 3953.11C439.08 3962.38 452.977 3967.01 462.252 3967.01C471.527 3967.01 485.423 3962.38 494.698 3953.11C837.487 3651.98 999.649 3188.69 906.965 2743.91L906.954 2743.9Z" fill="white"/>
</g>
</g>
</g>
<defs>
<filter id="filter0_d_2971_38934" x="707.035" y="-1823.01" width="604.355" height="1985.79" filterUnits="userSpaceOnUse" color-interpolation-filters="sRGB">
<feFlood flood-opacity="0" result="BackgroundImageFix"/>
<feColorMatrix in="SourceAlpha" type="matrix" values="0 0 0 0 0 0 0 0 0 0 0 0 0 0 0 0 0 0 127 0" result="hardAlpha"/>
<feOffset dy="16"/>
<feGaussianBlur stdDeviation="16"/>
<feComposite in2="hardAlpha" operator="out"/>
<feColorMatrix type="matrix" values="0 0 0 0 0.0980392 0 0 0 0 0.337255 0 0 0 0 0.658824 0 0 0 0.1 0"/>
<feBlend mode="normal" in2="BackgroundImageFix" result="effect1_dropShadow_2971_38934"/>
<feBlend mode="normal" in="SourceGraphic" in2="effect1_dropShadow_2971_38934" result="shape"/>
</filter>
<filter id="filter1_d_2971_38934" x="496" y="-562.764" width="1010.02" height="925.221" filterUnits="userSpaceOnUse" color-interpolation-filters="sRGB">
<feFlood flood-opacity="0" result="BackgroundImageFix"/>
<feColorMatrix in="SourceAlpha" type="matrix" values="0 0 0 0 0 0 0 0 0 0 0 0 0 0 0 0 0 0 127 0" result="hardAlpha"/>
<feOffset dy="16"/>
<feGaussianBlur stdDeviation="16"/>
<feComposite in2="hardAlpha" operator="out"/>
<feColorMatrix type="matrix" values="0 0 0 0 0.0980392 0 0 0 0 0.337255 0 0 0 0 0.658824 0 0 0 0.1 0"/>
<feBlend mode="normal" in2="BackgroundImageFix" result="effect1_dropShadow_2971_38934"/>
<feBlend mode="normal" in="SourceGraphic" in2="effect1_dropShadow_2971_38934" result="shape"/>
</filter>
<filter id="filter2_d_2971_38934" x="894.433" y="-1489.37" width="1206.21" height="2058.01" filterUnits="userSpaceOnUse" color-interpolation-filters="sRGB">
<feFlood flood-opacity="0" result="BackgroundImageFix"/>
<feColorMatrix in="SourceAlpha" type="matrix" values="0 0 0 0 0 0 0 0 0 0 0 0 0 0 0 0 0 0 127 0" result="hardAlpha"/>
<feOffset dy="16"/>
<feGaussianBlur stdDeviation="16"/>
<feComposite in2="hardAlpha" operator="out"/>
<feColorMatrix type="matrix" values="0 0 0 0 0.0980392 0 0 0 0 0.337255 0 0 0 0 0.658824 0 0 0 0.1 0"/>
<feBlend mode="normal" in2="BackgroundImageFix" result="effect1_dropShadow_2971_38934"/>
<feBlend mode="normal" in="SourceGraphic" in2="effect1_dropShadow_2971_38934" result="shape"/>
</filter>
<filter id="filter3_d_2971_38934" x="-97.5781" y="4979.66" width="804.491" height="1441.33" filterUnits="userSpaceOnUse" color-interpolation-filters="sRGB">
<feFlood flood-opacity="0" result="BackgroundImageFix"/>
<feColorMatrix in="SourceAlpha" type="matrix" values="0 0 0 0 0 0 0 0 0 0 0 0 0 0 0 0 0 0 127 0" result="hardAlpha"/>
<feOffset dy="16"/>
<feGaussianBlur stdDeviation="16"/>
<feComposite in2="hardAlpha" operator="out"/>
<feColorMatrix type="matrix" values="0 0 0 0 0.0980392 0 0 0 0 0.337255 0 0 0 0 0.658824 0 0 0 0.1 0"/>
<feBlend mode="normal" in2="BackgroundImageFix" result="effect1_dropShadow_2971_38934"/>
<feBlend mode="normal" in="SourceGraphic" in2="effect1_dropShadow_2971_38934" result="shape"/>
</filter>
<filter id="filter4_d_2971_38934" x="-2119" y="5085.66" width="2447.04" height="1226.25" filterUnits="userSpaceOnUse" color-interpolation-filters="sRGB">
<feFlood flood-opacity="0" result="BackgroundImageFix"/>
<feColorMatrix in="SourceAlpha" type="matrix" values="0 0 0 0 0 0 0 0 0 0 0 0 0 0 0 0 0 0 127 0" result="hardAlpha"/>
<feOffset dy="16"/>
<feGaussianBlur stdDeviation="16"/>
<feComposite in2="hardAlpha" operator="out"/>
<feColorMatrix type="matrix" values="0 0 0 0 0.0980392 0 0 0 0 0.337255 0 0 0 0 0.658824 0 0 0 0.1 0"/>
<feBlend mode="normal" in2="BackgroundImageFix" result="effect1_dropShadow_2971_38934"/>
<feBlend mode="normal" in="SourceGraphic" in2="effect1_dropShadow_2971_38934" result="shape"/>
</filter>
<filter id="filter5_d_2971_38934" x="-572.559" y="4954" width="1118.25" height="2160.55" filterUnits="userSpaceOnUse" color-interpolation-filters="sRGB">
<feFlood flood-opacity="0" result="BackgroundImageFix"/>
<feColorMatrix in="SourceAlpha" type="matrix" values="0 0 0 0 0 0 0 0 0 0 0 0 0 0 0 0 0 0 127 0" result="hardAlpha"/>
<feOffset dy="16"/>
<feGaussianBlur stdDeviation="16"/>
<feComposite in2="hardAlpha" operator="out"/>
<feColorMatrix type="matrix" values="0 0 0 0 0.0980392 0 0 0 0 0.337255 0 0 0 0 0.658824 0 0 0 0.1 0"/>
<feBlend mode="normal" in2="BackgroundImageFix" result="effect1_dropShadow_2971_38934"/>
<feBlend mode="normal" in="SourceGraphic" in2="effect1_dropShadow_2971_38934" result="shape"/>
</filter>
<filter id="filter6_d_2971_38934" x="-951.059" y="795.471" width="2781.34" height="2162.54" filterUnits="userSpaceOnUse" color-interpolation-filters="sRGB">
<feFlood flood-opacity="0" result="BackgroundImageFix"/>
<feColorMatrix in="SourceAlpha" type="matrix" values="0 0 0 0 0 0 0 0 0 0 0 0 0 0 0 0 0 0 127 0" result="hardAlpha"/>
<feOffset dy="13.5295"/>
<feGaussianBlur stdDeviation="13.5295"/>
<feComposite in2="hardAlpha" operator="out"/>
<feColorMatrix type="matrix" values="0 0 0 0 0.909804 0 0 0 0 0.937255 0 0 0 0 0.984314 0 0 0 1 0"/>
<feBlend mode="normal" in2="BackgroundImageFix" result="effect1_dropShadow_2971_38934"/>
<feBlend mode="normal" in="SourceGraphic" in2="effect1_dropShadow_2971_38934" result="shape"/>
</filter>
<filter id="filter7_d_2971_38934" x="754.484" y="3526.49" width="507.705" height="710.888" filterUnits="userSpaceOnUse" color-interpolation-filters="sRGB">
<feFlood flood-opacity="0" result="BackgroundImageFix"/>
<feColorMatrix in="SourceAlpha" type="matrix" values="0 0 0 0 0 0 0 0 0 0 0 0 0 0 0 0 0 0 127 0" result="hardAlpha"/>
<feOffset dy="16"/>
<feGaussianBlur stdDeviation="16"/>
<feComposite in2="hardAlpha" operator="out"/>
<feColorMatrix type="matrix" values="0 0 0 0 0.0980392 0 0 0 0 0.337255 0 0 0 0 0.658824 0 0 0 0.1 0"/>
<feBlend mode="normal" in2="BackgroundImageFix" result="effect1_dropShadow_2971_38934"/>
<feBlend mode="normal" in="SourceGraphic" in2="effect1_dropShadow_2971_38934" result="shape"/>
</filter>
<filter id="filter8_d_2971_38934" x="1175.25" y="2362.84" width="604.355" height="1985.8" filterUnits="userSpaceOnUse" color-interpolation-filters="sRGB">
<feFlood flood-opacity="0" result="BackgroundImageFix"/>
<feColorMatrix in="SourceAlpha" type="matrix" values="0 0 0 0 0 0 0 0 0 0 0 0 0 0 0 0 0 0 127 0" result="hardAlpha"/>
<feOffset dy="16"/>
<feGaussianBlur stdDeviation="16"/>
<feComposite in2="hardAlpha" operator="out"/>
<feColorMatrix type="matrix" values="0 0 0 0 0.0980392 0 0 0 0 0.337255 0 0 0 0 0.658824 0 0 0 0.1 0"/>
<feBlend mode="normal" in2="BackgroundImageFix" result="effect1_dropShadow_2971_38934"/>
<feBlend mode="normal" in="SourceGraphic" in2="effect1_dropShadow_2971_38934" result="shape"/>
</filter>
<filter id="filter9_d_2971_38934" x="559.938" y="2741.8" width="610.284" height="1389.02" filterUnits="userSpaceOnUse" color-interpolation-filters="sRGB">
<feFlood flood-opacity="0" result="BackgroundImageFix"/>
<feColorMatrix in="SourceAlpha" type="matrix" values="0 0 0 0 0 0 0 0 0 0 0 0 0 0 0 0 0 0 127 0" result="hardAlpha"/>
<feOffset dy="16"/>
<feGaussianBlur stdDeviation="16"/>
<feComposite in2="hardAlpha" operator="out"/>
<feColorMatrix type="matrix" values="0 0 0 0 0.0980392 0 0 0 0 0.337255 0 0 0 0 0.658824 0 0 0 0.1 0"/>
<feBlend mode="normal" in2="BackgroundImageFix" result="effect1_dropShadow_2971_38934"/>
<feBlend mode="normal" in="SourceGraphic" in2="effect1_dropShadow_2971_38934" result="shape"/>
</filter>
<filter id="filter10_d_2971_38934" x="980.629" y="2163.18" width="1010.02" height="925.221" filterUnits="userSpaceOnUse" color-interpolation-filters="sRGB">
<feFlood flood-opacity="0" result="BackgroundImageFix"/>
<feColorMatrix in="SourceAlpha" type="matrix" values="0 0 0 0 0 0 0 0 0 0 0 0 0 0 0 0 0 0 127 0" result="hardAlpha"/>
<feOffset dy="16"/>
<feGaussianBlur stdDeviation="16"/>
<feComposite in2="hardAlpha" operator="out"/>
<feColorMatrix type="matrix" values="0 0 0 0 0.0980392 0 0 0 0 0.337255 0 0 0 0 0.658824 0 0 0 0.1 0"/>
<feBlend mode="normal" in2="BackgroundImageFix" result="effect1_dropShadow_2971_38934"/>
<feBlend mode="normal" in="SourceGraphic" in2="effect1_dropShadow_2971_38934" result="shape"/>
</filter>
<filter id="filter11_d_2971_38934" x="386" y="1957" width="1206.21" height="2058.01" filterUnits="userSpaceOnUse" color-interpolation-filters="sRGB">
<feFlood flood-opacity="0" result="BackgroundImageFix"/>
<feColorMatrix in="SourceAlpha" type="matrix" values="0 0 0 0 0 0 0 0 0 0 0 0 0 0 0 0 0 0 127 0" result="hardAlpha"/>
<feOffset dy="16"/>
<feGaussianBlur stdDeviation="16"/>
<feComposite in2="hardAlpha" operator="out"/>
<feColorMatrix type="matrix" values="0 0 0 0 0.0980392 0 0 0 0 0.337255 0 0 0 0 0.658824 0 0 0 0.1 0"/>
<feBlend mode="normal" in2="BackgroundImageFix" result="effect1_dropShadow_2971_38934"/>
<feBlend mode="normal" in="SourceGraphic" in2="effect1_dropShadow_2971_38934" result="shape"/>
</filter>
<clipPath id="clip0_2971_38934">
<rect width="1366" height="7067" fill="white"/>
</clipPath>
</defs>
</svg>
