<svg width="143" height="135" viewBox="0 0 143 135" fill="none" xmlns="http://www.w3.org/2000/svg">
<path fill-rule="evenodd" clip-rule="evenodd" d="M97.1798 70.4441C87.8148 70.4441 79.1081 73.2623 71.8613 78.0968C84.1347 86.2863 92.2193 100.26 92.2193 116.122V119.776H51.5V119.778H142.86V116.124C142.86 90.8957 122.408 70.4441 97.1798 70.4441Z" fill="white"/>
<path opacity="0.8" fill-rule="evenodd" clip-rule="evenodd" d="M51.5 119.776H92.2193V116.122C92.2193 100.259 84.134 86.285 71.8597 78.0957C59.5854 86.285 51.5 100.259 51.5 116.122V119.776Z" fill="white"/>
<path opacity="0.5" fill-rule="evenodd" clip-rule="evenodd" d="M46.5802 70.4441C21.352 70.4441 0.900391 90.8956 0.900391 116.124V119.778H92.2601V116.124C92.2601 90.8956 71.8085 70.4441 46.5802 70.4441ZM92.2198 116.122V119.776H51.5005V116.122C51.5005 100.259 59.5858 86.285 71.8602 78.0957C84.1345 86.285 92.2198 100.259 92.2198 116.122Z" fill="white"/>
<ellipse opacity="0.5" cx="46.2592" cy="38.5707" rx="23.4496" ry="23.4496" fill="white"/>
<ellipse cx="96.9428" cy="38.5707" rx="23.4496" ry="23.4496" fill="white"/>
</svg>
