<svg width="250" height="251" viewBox="0 0 250 251" fill="none" xmlns="http://www.w3.org/2000/svg">
<g clip-path="url(#clip0_2_1567)">
<rect y="0.445801" width="250" height="250" rx="16" fill="white"/>
<path d="M124.861 67.6455C92.5881 67.6455 65.0272 86.0982 53.8608 112.146C65.0272 138.193 92.5881 156.646 124.861 156.646C157.134 156.646 184.694 138.193 195.861 112.146C184.694 86.0982 157.134 67.6455 124.861 67.6455ZM124.861 141.812C107.046 141.812 92.5881 128.522 92.5881 112.146C92.5881 95.7695 107.046 82.4788 124.861 82.4788C142.675 82.4788 157.134 95.7695 157.134 112.146C157.134 128.522 142.675 141.812 124.861 141.812Z" fill="#A3BBDC"/>
<path fill-rule="evenodd" clip-rule="evenodd" d="M126.99 67.7843C126.833 67.7781 126.678 67.772 126.525 67.7659C118.825 67.659 112.322 68.4591 106.901 69.6418C94.7038 72.3032 85.1209 82.0418 82.4272 94.2323C81.1582 99.9753 80.4858 105.972 80.4858 112.141C80.4858 144.414 98.8867 171.974 124.861 183.141C150.835 171.974 169.236 144.414 169.236 112.141C169.236 105.979 168.565 99.9889 167.299 94.2519C164.605 82.0488 154.962 72.4225 142.775 69.6563C136.114 68.1444 130.915 67.9393 126.99 67.7843ZM124.81 82.7424C108.118 82.7424 92.689 94.251 92.689 112.141C92.689 130.031 108.118 141.817 124.81 141.817C141.503 141.817 156.932 130.031 156.932 112.141C156.932 94.251 141.503 82.7424 124.81 82.7424Z" fill="#1956A8"/>
<path d="M105.447 112.141C105.447 102.319 114.096 94.3911 124.81 94.3911C135.525 94.3911 144.174 102.319 144.174 112.141C144.174 121.963 135.525 129.891 124.81 129.891C114.096 129.891 105.447 121.963 105.447 112.141Z" fill="#FFA05C"/>
<path d="M88.7339 148.081C99.485 153.416 111.786 156.444 124.861 156.444C137.936 156.444 150.237 153.416 160.988 148.081C153.184 163.956 140.373 176.472 124.861 183.141C109.349 176.472 96.5374 163.956 88.7339 148.081Z" fill="#144586"/>
<path fill-rule="evenodd" clip-rule="evenodd" d="M196 0.945801C196 -3.19633 199.358 -6.5542 203.5 -6.5542L233.5 -6.5542C245.926 -6.5542 256 3.51939 256 15.9458L256 45.9458C256 50.0879 252.642 53.4458 248.5 53.4458C244.358 53.4458 241 50.0879 241 45.9458L241 15.9458C241 11.8037 237.642 8.4458 233.5 8.4458L203.5 8.4458C199.358 8.4458 196 5.08794 196 0.945801Z" fill="#FF8833"/>
<path fill-rule="evenodd" clip-rule="evenodd" d="M-0.5 53.4458C-4.64214 53.4458 -8 50.0879 -8 45.9458L-8 15.9458C-8 3.51939 2.0736 -6.5542 14.5 -6.5542L44.5 -6.5542C48.6421 -6.5542 52 -3.19633 52 0.945801C52 5.08794 48.6421 8.4458 44.5 8.4458L14.5 8.4458C10.3579 8.4458 7 11.8037 7 15.9458L7 45.9458C7 50.0879 3.64214 53.4458 -0.5 53.4458Z" fill="#FF8833"/>
<path fill-rule="evenodd" clip-rule="evenodd" d="M248.5 198.446C252.642 198.446 256 201.804 256 205.946V235.946C256 248.372 245.926 258.446 233.5 258.446H203.5C199.358 258.446 196 255.088 196 250.946C196 246.804 199.358 243.446 203.5 243.446H233.5C237.642 243.446 241 240.088 241 235.946V205.946C241 201.804 244.358 198.446 248.5 198.446Z" fill="#FF8833"/>
<path fill-rule="evenodd" clip-rule="evenodd" d="M53 250.946C53 255.088 49.6421 258.446 45.5 258.446L15.5 258.446C3.07359 258.446 -7 248.372 -7 235.946L-7 205.946C-7 201.804 -3.64214 198.446 0.5 198.446C4.64214 198.446 8 201.804 8 205.946L8 235.946C8 240.088 11.3579 243.446 15.5 243.446L45.5 243.446C49.6421 243.446 53 246.804 53 250.946Z" fill="#FF8833"/>
</g>
<defs>
<clipPath id="clip0_2_1567">
<rect y="0.445801" width="250" height="250" rx="16" fill="white"/>
</clipPath>
</defs>
</svg>
