<svg width="250" height="251" viewBox="0 0 250 251" fill="none" xmlns="http://www.w3.org/2000/svg">
<g clip-path="url(#clip0_2_1597)">
<rect y="0.445801" width="250" height="250" rx="16" fill="white"/>
<circle cx="105.681" cy="86.2648" r="28.0734" fill="#454980"/>
<path fill-rule="evenodd" clip-rule="evenodd" d="M105.68 114.338C121.185 114.338 133.754 101.769 133.754 86.2649C133.754 83.5849 133.378 80.9926 132.677 78.5378C130.217 77.7291 127.592 77.292 124.865 77.292C110.913 77.292 99.6025 88.7389 99.6025 102.859C99.6025 106.901 100.529 110.724 102.179 114.122C103.326 114.265 104.495 114.338 105.68 114.338Z" fill="#FFA05C"/>
<path d="M92.1732 82.4787C91.9841 82.4804 91.7979 82.4321 91.6335 82.3385C91.513 82.2708 91.4071 82.1796 91.3222 82.0705C91.2373 81.9613 91.175 81.8363 91.1389 81.7027C91.1029 81.5692 91.0939 81.4298 91.1124 81.2927C91.1309 81.1557 91.1765 81.0237 91.2466 80.9044C92.598 78.6488 96.7097 73.3841 105.682 73.3841C109.57 73.3841 112.98 74.4054 115.812 76.4185C118.143 78.0706 119.45 79.9407 120.072 80.8414C120.151 80.9549 120.207 81.0831 120.235 81.2183C120.264 81.3536 120.265 81.4933 120.239 81.6291C120.213 81.7648 120.16 81.894 120.083 82.009C120.007 82.124 119.907 82.2225 119.792 82.2986C119.556 82.4545 119.269 82.5125 118.991 82.4602C118.713 82.4078 118.466 82.2493 118.303 82.0182C117.177 80.3984 113.742 75.4694 105.682 75.4694C97.8136 75.4694 94.2564 80.0051 93.0978 81.9502C93.0047 82.1127 92.8699 82.2473 92.7074 82.3402C92.5448 82.4331 92.3604 82.4809 92.1732 82.4787Z" fill="white"/>
<path d="M110.202 103.086C110.113 103.087 110.024 103.077 109.937 103.056C103.428 101.444 100.998 94.9377 100.899 94.6671L100.884 94.6076C100.831 94.4197 99.525 89.9583 101.53 87.3452C102.449 86.1536 103.846 85.5424 105.692 85.5424C107.408 85.5424 108.645 86.0758 109.496 87.1798C110.197 88.0812 110.478 89.1929 110.749 90.2639C111.319 92.4943 111.73 93.6655 114.099 93.7861C115.139 93.8386 115.822 93.2302 116.21 92.7122C117.258 91.2999 117.44 88.9973 116.65 86.9646C115.635 84.341 112.033 79.3946 105.682 79.3946C102.971 79.3946 100.48 80.2658 98.482 81.9032C96.8285 83.2595 95.5184 85.1744 94.8876 87.1427C93.7177 90.8071 95.2521 96.5674 95.2668 96.6199C95.3026 96.754 95.3113 96.8939 95.2922 97.0313C95.2731 97.1688 95.2266 97.301 95.1556 97.4202C95.0846 97.5395 94.9905 97.6432 94.8787 97.7255C94.7669 97.8077 94.6398 97.8668 94.5049 97.8991C94.2323 97.9716 93.9421 97.9345 93.6966 97.7956C93.451 97.6567 93.2697 97.4272 93.1913 97.1562C93.1213 96.8933 91.4825 90.7496 92.8339 86.5146C94.3058 81.9256 98.8486 77.2995 105.684 77.2995C108.843 77.2995 111.828 78.3733 114.319 80.4011C116.248 81.9782 117.823 84.0964 118.648 86.2139C119.696 88.9174 119.415 91.9517 117.934 93.934C116.947 95.2559 115.541 95.947 113.984 95.872C109.929 95.6688 109.2 92.8377 108.669 90.7728C108.122 88.6546 107.772 87.6333 105.684 87.6333C104.537 87.6333 103.732 87.9487 103.231 88.602C102.547 89.4957 102.494 90.8926 102.57 91.9062C102.62 92.6123 102.739 93.3118 102.927 93.9943C103.094 94.4148 105.266 99.7419 110.469 101.031C110.603 101.063 110.73 101.121 110.842 101.202C110.953 101.284 111.048 101.386 111.12 101.504C111.191 101.622 111.239 101.754 111.259 101.89C111.28 102.027 111.273 102.166 111.24 102.3C111.176 102.527 111.04 102.726 110.853 102.868C110.666 103.01 110.437 103.086 110.202 103.086Z" fill="white"/>
<path d="M101.848 102.605C101.702 102.606 101.558 102.577 101.424 102.52C101.289 102.463 101.168 102.38 101.066 102.275C98.4613 99.5415 96.988 96.4848 96.4335 92.6626V92.6423C96.1223 90.1119 96.5779 86.5294 98.8104 84.0664C100.458 82.2488 102.775 81.325 105.684 81.325C109.124 81.325 111.827 82.9245 113.513 85.9435C114.736 88.1367 114.979 90.3222 114.985 90.4119C114.998 90.5502 114.983 90.6897 114.942 90.8224C114.901 90.9551 114.834 91.0784 114.745 91.1851C114.656 91.2919 114.547 91.3801 114.424 91.4447C114.301 91.5093 114.167 91.5489 114.028 91.5614C113.749 91.5917 113.469 91.511 113.249 91.3367C113.029 91.1624 112.886 90.9086 112.851 90.6299C112.667 89.3185 112.242 88.0524 111.6 86.8946C110.293 84.5893 108.305 83.4173 105.676 83.4173C103.405 83.4173 101.628 84.1007 100.406 85.45C98.6436 87.3951 98.3029 90.3916 98.5447 92.3738C99.0305 95.7537 100.329 98.4425 102.623 100.845C102.718 100.945 102.793 101.063 102.842 101.192C102.892 101.321 102.915 101.458 102.91 101.596C102.905 101.734 102.872 101.87 102.814 101.995C102.755 102.12 102.672 102.232 102.569 102.325C102.372 102.504 102.115 102.604 101.848 102.605Z" fill="white"/>
<path d="M113.848 99.5941C111.57 99.5941 109.633 98.9632 108.083 97.7093C104.97 95.2006 104.621 91.1149 104.605 90.9425C104.583 90.6594 104.675 90.3793 104.859 90.1637C105.044 89.948 105.307 89.8145 105.59 89.7926C105.873 89.7707 106.153 89.8621 106.369 90.0467C106.584 90.2313 106.718 90.494 106.74 90.7771C106.747 90.8373 107.059 94.1794 109.459 96.1041C110.879 97.2382 112.777 97.6882 115.116 97.4254C115.395 97.3915 115.677 97.4696 115.899 97.6427C116.121 97.8158 116.266 98.0699 116.301 98.3492C116.316 98.4872 116.304 98.6269 116.265 98.7601C116.226 98.8933 116.16 99.0173 116.073 99.125C115.985 99.2326 115.877 99.3217 115.754 99.3871C115.632 99.4525 115.497 99.4928 115.359 99.5058C114.857 99.5643 114.353 99.5938 113.848 99.5941ZM115.648 71.7398C114.759 71.1615 111.608 69.4414 105.682 69.4414C99.462 69.4414 96.3029 71.3416 95.604 71.8246C95.5579 71.8529 95.5147 71.8858 95.4751 71.9227C95.4709 71.9267 95.4654 71.9292 95.4596 71.9297C95.348 72.0271 95.2585 72.1472 95.197 72.282C95.1355 72.4168 95.1034 72.5631 95.1029 72.7113C95.1048 72.8501 95.1341 72.9872 95.1891 73.1148C95.2441 73.2423 95.3237 73.3577 95.4234 73.4544C95.5231 73.5511 95.6409 73.6272 95.77 73.6783C95.8992 73.7293 96.0371 73.7545 96.176 73.7521C96.3986 73.752 96.6157 73.6837 96.7984 73.5566C96.8286 73.5341 99.5475 71.5365 105.684 71.5365C111.821 71.5365 114.554 73.5271 114.584 73.5419C114.77 73.6802 114.997 73.7541 115.229 73.7521C115.368 73.7543 115.506 73.7289 115.636 73.6776C115.765 73.6262 115.882 73.5499 115.982 73.4529C116.082 73.3559 116.161 73.2403 116.216 73.1125C116.271 72.9847 116.3 72.8474 116.301 72.7084C116.301 72.5003 116.239 72.2968 116.123 72.1242C116.006 71.9516 115.841 71.8177 115.648 71.7398Z" fill="white"/>
<path fill-rule="evenodd" clip-rule="evenodd" d="M105.68 114.339C121.185 114.339 133.754 101.77 133.754 86.2654C133.754 83.8649 133.452 81.5348 132.886 79.3107C132.816 79.0221 132.742 78.7352 132.663 78.4502C142.786 81.7794 150.094 91.3133 150.094 102.555C150.094 107.838 148.48 112.744 145.719 116.806L157.737 128.83C159.718 130.811 159.718 134.024 157.737 136.005C155.757 137.987 152.546 137.987 150.565 136.005L138.458 123.892C134.504 126.443 129.794 127.923 124.738 127.923C114.899 127.923 106.368 122.316 102.165 114.121C103.317 114.265 104.49 114.339 105.68 114.339Z" fill="#171C60"/>
<path d="M74.7129 188.14C74.7129 160.168 97.3888 137.492 125.361 137.492C153.333 137.492 176.009 160.168 176.009 188.14V192.192H74.7129V188.14Z" fill="#171C60"/>
<path fill-rule="evenodd" clip-rule="evenodd" d="M196 0.945801C196 -3.19633 199.358 -6.5542 203.5 -6.5542L233.5 -6.5542C245.926 -6.5542 256 3.51939 256 15.9458L256 45.9458C256 50.0879 252.642 53.4458 248.5 53.4458C244.358 53.4458 241 50.0879 241 45.9458L241 15.9458C241 11.8037 237.642 8.4458 233.5 8.4458L203.5 8.4458C199.358 8.4458 196 5.08794 196 0.945801Z" fill="#FF8833"/>
<path fill-rule="evenodd" clip-rule="evenodd" d="M-0.5 53.4458C-4.64214 53.4458 -8 50.0879 -8 45.9458L-8 15.9458C-8 3.51939 2.0736 -6.5542 14.5 -6.5542L44.5 -6.5542C48.6421 -6.5542 52 -3.19633 52 0.945801C52 5.08794 48.6421 8.4458 44.5 8.4458L14.5 8.4458C10.3579 8.4458 7 11.8037 7 15.9458L7 45.9458C7 50.0879 3.64214 53.4458 -0.5 53.4458Z" fill="#FF8833"/>
<path fill-rule="evenodd" clip-rule="evenodd" d="M248.5 198.446C252.642 198.446 256 201.804 256 205.946V235.946C256 248.372 245.926 258.446 233.5 258.446H203.5C199.358 258.446 196 255.088 196 250.946C196 246.804 199.358 243.446 203.5 243.446H233.5C237.642 243.446 241 240.088 241 235.946V205.946C241 201.804 244.358 198.446 248.5 198.446Z" fill="#FF8833"/>
<path fill-rule="evenodd" clip-rule="evenodd" d="M53 250.946C53 255.088 49.6421 258.446 45.5 258.446L15.5 258.446C3.07359 258.446 -7 248.372 -7 235.946L-7 205.946C-7 201.804 -3.64214 198.446 0.5 198.446C4.64214 198.446 8 201.804 8 205.946L8 235.946C8 240.088 11.3579 243.446 15.5 243.446L45.5 243.446C49.6421 243.446 53 246.804 53 250.946Z" fill="#FF8833"/>
</g>
<defs>
<clipPath id="clip0_2_1597">
<rect y="0.445801" width="250" height="250" rx="16" fill="white"/>
</clipPath>
</defs>
</svg>
