<svg width="250" height="251" viewBox="0 0 250 251" fill="none" xmlns="http://www.w3.org/2000/svg">
<g clip-path="url(#clip0_2_1475)">
<rect y="0.445801" width="250" height="250" rx="16" fill="white"/>
<path fill-rule="evenodd" clip-rule="evenodd" d="M189.39 72.0286C190.181 72.5328 190.962 73.0475 191.732 73.5722C191.783 74.484 191.821 75.4 191.845 76.3197C193.02 91.4252 189.201 106.818 181.227 120.473C176.153 129.692 169.47 137.749 161.622 144.166V162.799C153.321 159.835 136.482 152.245 128.418 145.604C128.134 145.371 127.894 145.148 127.694 144.937C121.207 139.761 115.523 133.46 110.867 126.299C101.42 112.436 96.5722 96.3332 97.0218 80.3172C97.0117 79.7619 97.0067 79.2052 97.0067 78.6474C97.0067 76.7078 97.0694 74.784 97.1917 72.8785C98.5402 71.9998 99.9211 71.1518 101.334 70.3362C102.112 69.8866 102.896 69.4503 103.683 69.0273C118.765 60.1976 137.034 56.6679 155.302 59.2941C167.707 60.8606 179.454 65.1908 189.39 72.0286Z" fill="#454980"/>
<path fill-rule="evenodd" clip-rule="evenodd" d="M60.5243 101.675C59.7327 102.179 58.952 102.693 58.1823 103.218C58.1309 104.13 58.0931 105.046 58.0695 105.966C56.8939 121.071 60.7127 136.464 68.6875 150.119C73.7609 159.338 80.4445 167.395 88.2923 173.812V192.445C96.5935 189.481 113.432 181.891 121.496 175.251C121.78 175.017 122.021 174.794 122.22 174.583C128.707 169.407 134.391 163.106 139.047 155.945C148.494 142.082 153.342 125.979 152.892 109.963C152.902 109.408 152.907 108.851 152.907 108.293C152.907 106.354 152.845 104.43 152.722 102.525C151.374 101.646 149.993 100.798 148.58 99.9822C147.802 99.5326 147.019 99.0963 146.232 98.6733C131.149 89.8436 112.88 86.3139 94.6119 88.9401C82.2075 90.5066 70.46 94.8368 60.5243 101.675Z" fill="#171C60"/>
<path fill-rule="evenodd" clip-rule="evenodd" d="M140.707 153.411C135.966 150.882 131.536 148.172 128.418 145.604C128.134 145.371 127.893 145.148 127.694 144.937C121.207 139.761 115.523 133.46 110.867 126.299C103.05 114.828 98.3817 101.823 97.2583 88.6026C114.637 86.6672 131.877 90.2701 146.231 98.6733C147.018 99.0963 147.801 99.5326 148.58 99.9822C149.993 100.798 151.374 101.646 152.722 102.525C152.845 104.43 152.907 106.354 152.907 108.293C152.907 108.851 152.902 109.408 152.892 109.963C153.315 125.012 149.059 140.139 140.707 153.411Z" fill="#FFA05C"/>
<path fill-rule="evenodd" clip-rule="evenodd" d="M196 0.945801C196 -3.19633 199.358 -6.5542 203.5 -6.5542L233.5 -6.5542C245.926 -6.5542 256 3.51939 256 15.9458L256 45.9458C256 50.0879 252.642 53.4458 248.5 53.4458C244.358 53.4458 241 50.0879 241 45.9458L241 15.9458C241 11.8037 237.642 8.4458 233.5 8.4458L203.5 8.4458C199.358 8.4458 196 5.08794 196 0.945801Z" fill="#FF8833"/>
<path fill-rule="evenodd" clip-rule="evenodd" d="M-0.5 53.4458C-4.64214 53.4458 -8 50.0879 -8 45.9458L-8 15.9458C-8 3.51939 2.0736 -6.5542 14.5 -6.5542L44.5 -6.5542C48.6421 -6.5542 52 -3.19633 52 0.945801C52 5.08794 48.6421 8.4458 44.5 8.4458L14.5 8.4458C10.3579 8.4458 7 11.8037 7 15.9458L7 45.9458C7 50.0879 3.64214 53.4458 -0.5 53.4458Z" fill="#FF8833"/>
<path fill-rule="evenodd" clip-rule="evenodd" d="M248.5 198.446C252.642 198.446 256 201.804 256 205.946V235.946C256 248.372 245.926 258.446 233.5 258.446H203.5C199.358 258.446 196 255.088 196 250.946C196 246.804 199.358 243.446 203.5 243.446H233.5C237.642 243.446 241 240.088 241 235.946V205.946C241 201.804 244.358 198.446 248.5 198.446Z" fill="#FF8833"/>
<path fill-rule="evenodd" clip-rule="evenodd" d="M53 250.946C53 255.088 49.6421 258.446 45.5 258.446L15.5 258.446C3.07359 258.446 -7 248.372 -7 235.946L-7 205.946C-7 201.804 -3.64214 198.446 0.5 198.446C4.64214 198.446 8 201.804 8 205.946L8 235.946C8 240.088 11.3579 243.446 15.5 243.446L45.5 243.446C49.6421 243.446 53 246.804 53 250.946Z" fill="#FF8833"/>
</g>
<defs>
<clipPath id="clip0_2_1475">
<rect y="0.445801" width="250" height="250" rx="16" fill="white"/>
</clipPath>
</defs>
</svg>
