<svg width="250" height="251" viewBox="0 0 250 251" fill="none" xmlns="http://www.w3.org/2000/svg">
<g clip-path="url(#clip0_2_1376)">
<rect y="0.445801" width="250" height="250" rx="16" fill="white"/>
<path d="M54.3604 130.233C54.3604 127.857 56.2869 125.93 58.6634 125.93H125.36V171.112C125.36 173.488 123.434 175.415 121.057 175.415H58.6634C56.2869 175.415 54.3604 173.488 54.3604 171.112V130.233Z" fill="#A3BBDC"/>
<path d="M125.36 80.7483C125.36 78.3718 127.287 76.4453 129.663 76.4453H192.057C194.434 76.4453 196.36 78.3718 196.36 80.7483V121.627C196.36 124.004 194.434 125.93 192.057 125.93H125.36V80.7483Z" fill="#5E89C2"/>
<path d="M126.186 167.823L126.181 167.826C125.903 168.028 125.629 168.227 125.36 168.423C125.091 168.227 124.818 168.028 124.539 167.826L124.534 167.823C122.635 166.444 120.53 164.916 118.302 163.196L108.255 154.525C95.5503 142.062 83.1208 122.701 85.2614 91.0296C98.6716 86.3186 117.426 84.7199 125.349 84.514L125.36 84.5137L125.372 84.514C133.295 84.7199 152.049 86.3186 165.459 91.0296C167.105 115.377 160.141 132.427 151.094 144.657C144.778 153.195 137.422 159.416 131.182 164.141C129.41 165.483 127.73 166.702 126.186 167.823Z" fill="#1956A8"/>
<path d="M125.361 168.423C125.361 168.423 125.361 168.423 125.361 168.423C125.092 168.227 124.818 168.028 124.54 167.826L124.535 167.823C122.635 166.444 120.53 164.915 118.303 163.196L108.255 154.525C101.099 147.504 94.0294 138.295 89.6025 125.93H125.361V168.423Z" fill="#144586"/>
<path d="M161.119 125.93H125.36V84.5137L125.372 84.514C133.295 84.7199 152.049 86.3186 165.459 91.0296C166.395 104.869 164.548 116.351 161.119 125.93Z" fill="#144586"/>
<path d="M129.663 76.4453C127.287 76.4453 125.36 78.3718 125.36 80.7483V84.5135L125.372 84.5138C133.295 84.7197 152.049 86.3184 165.459 91.0295C166.395 104.869 164.548 116.351 161.119 125.93H192.057C194.434 125.93 196.36 124.004 196.36 121.627V80.7483C196.36 78.3718 194.434 76.4453 192.057 76.4453H129.663Z" fill="#A3BBDC"/>
<path fill-rule="evenodd" clip-rule="evenodd" d="M127.001 125.308C129.732 124.608 131.74 122.265 131.74 119.483C131.74 116.148 128.857 113.445 125.3 113.445C121.744 113.445 118.86 116.148 118.86 119.483C118.86 122.451 121.145 124.919 124.155 125.425L120.471 133.57H130.936L127.001 125.308Z" fill="#FFA05C"/>
<path fill-rule="evenodd" clip-rule="evenodd" d="M196 0.945801C196 -3.19633 199.358 -6.5542 203.5 -6.5542L233.5 -6.5542C245.926 -6.5542 256 3.51939 256 15.9458L256 45.9458C256 50.0879 252.642 53.4458 248.5 53.4458C244.358 53.4458 241 50.0879 241 45.9458L241 15.9458C241 11.8037 237.642 8.4458 233.5 8.4458L203.5 8.4458C199.358 8.4458 196 5.08794 196 0.945801Z" fill="#FF8833"/>
<path fill-rule="evenodd" clip-rule="evenodd" d="M-0.5 53.4458C-4.64214 53.4458 -8 50.0879 -8 45.9458L-8 15.9458C-8 3.51939 2.0736 -6.5542 14.5 -6.5542L44.5 -6.5542C48.6421 -6.5542 52 -3.19633 52 0.945801C52 5.08794 48.6421 8.4458 44.5 8.4458L14.5 8.4458C10.3579 8.4458 7 11.8037 7 15.9458L7 45.9458C7 50.0879 3.64214 53.4458 -0.5 53.4458Z" fill="#FF8833"/>
<path fill-rule="evenodd" clip-rule="evenodd" d="M248.5 198.446C252.642 198.446 256 201.804 256 205.946V235.946C256 248.372 245.926 258.446 233.5 258.446H203.5C199.358 258.446 196 255.088 196 250.946C196 246.804 199.358 243.446 203.5 243.446H233.5C237.642 243.446 241 240.088 241 235.946V205.946C241 201.804 244.358 198.446 248.5 198.446Z" fill="#FF8833"/>
<path fill-rule="evenodd" clip-rule="evenodd" d="M53 250.946C53 255.088 49.6421 258.446 45.5 258.446L15.5 258.446C3.07359 258.446 -7 248.372 -7 235.946L-7 205.946C-7 201.804 -3.64214 198.446 0.5 198.446C4.64214 198.446 8 201.804 8 205.946L8 235.946C8 240.088 11.3579 243.446 15.5 243.446L45.5 243.446C49.6421 243.446 53 246.804 53 250.946Z" fill="#FF8833"/>
</g>
<defs>
<clipPath id="clip0_2_1376">
<rect y="0.445801" width="250" height="250" rx="16" fill="white"/>
</clipPath>
</defs>
</svg>
