<svg width="250" height="251" viewBox="0 0 250 251" fill="none" xmlns="http://www.w3.org/2000/svg">
<g clip-path="url(#clip0_2_1442)">
<rect y="0.445801" width="250" height="250" rx="16" fill="white"/>
<circle cx="103.36" cy="104.945" r="48.5" fill="#454980"/>
<path fill-rule="evenodd" clip-rule="evenodd" d="M103.36 153.445C130.146 153.445 151.86 131.731 151.86 104.945C151.86 100.315 151.212 95.8366 150 91.5956C145.75 90.1985 141.214 89.4434 136.504 89.4434C112.4 89.4434 92.8604 109.219 92.8604 133.614C92.8604 140.597 94.4614 147.201 97.3123 153.072C99.2937 153.318 101.312 153.445 103.36 153.445Z" fill="#FFA05C"/>
<path d="M80.0247 98.4043C79.698 98.4073 79.3763 98.3237 79.0923 98.1621C78.884 98.045 78.7011 97.8876 78.5544 97.699C78.4077 97.5104 78.3001 97.2944 78.2378 97.0637C78.1756 96.833 78.16 96.5922 78.1919 96.3554C78.2239 96.1186 78.3027 95.8905 78.4238 95.6845C80.7585 91.7877 87.8619 82.6924 103.362 82.6924C110.079 82.6924 115.97 84.4567 120.864 87.9345C124.891 90.7887 127.148 94.0195 128.224 95.5755C128.36 95.7717 128.456 95.9931 128.505 96.2268C128.555 96.4605 128.557 96.7018 128.512 96.9364C128.467 97.171 128.375 97.3942 128.242 97.5928C128.11 97.7915 127.939 97.9616 127.739 98.0931C127.332 98.3625 126.835 98.4626 126.355 98.3722C125.875 98.2818 125.449 98.0079 125.167 97.6087C123.221 94.8102 117.288 86.2949 103.362 86.2949C89.7691 86.2949 83.6236 94.1309 81.6219 97.4913C81.4611 97.7719 81.2283 98.0044 80.9475 98.165C80.6667 98.3255 80.3481 98.4081 80.0247 98.4043Z" fill="white"/>
<path d="M111.172 134.006C111.017 134.008 110.863 133.99 110.713 133.954C99.4693 131.168 95.271 119.929 95.1003 119.461L95.0736 119.358C94.9816 119.034 92.7256 111.326 96.1889 106.812C97.7764 104.753 100.191 103.697 103.379 103.697C106.344 103.697 108.482 104.619 109.952 106.526C111.163 108.083 111.648 110.004 112.116 111.854C113.101 115.707 113.812 117.731 117.903 117.939C119.7 118.03 120.881 116.979 121.551 116.084C123.361 113.644 123.676 109.666 122.311 106.154C120.558 101.622 114.335 93.076 103.362 93.076C98.6786 93.076 94.3749 94.5812 90.9237 97.41C88.0671 99.7531 85.8039 103.061 84.7141 106.462C82.693 112.793 85.3437 122.744 85.3692 122.835C85.4311 123.066 85.446 123.308 85.413 123.546C85.38 123.783 85.2998 124.011 85.1771 124.217C85.0544 124.423 84.8918 124.603 84.6987 124.745C84.5056 124.887 84.286 124.989 84.0529 125.045C83.5819 125.17 83.0806 125.106 82.6564 124.866C82.2322 124.626 81.9189 124.229 81.7836 123.761C81.6625 123.307 78.8313 112.693 81.166 105.377C83.709 97.4487 91.5571 89.4565 103.366 89.4565C108.824 89.4565 113.98 91.3117 118.284 94.8149C121.616 97.5396 124.338 101.199 125.762 104.857C127.573 109.528 127.087 114.77 124.528 118.195C122.823 120.478 120.396 121.672 117.706 121.543C110.7 121.192 109.44 116.301 108.522 112.733C107.578 109.074 106.974 107.309 103.366 107.309C101.385 107.309 99.9937 107.854 99.1278 108.983C97.9472 110.527 97.8552 112.94 97.9859 114.691C98.0718 115.911 98.2787 117.12 98.6035 118.299C98.8917 119.025 102.644 128.228 111.632 130.455C111.864 130.51 112.083 130.611 112.276 130.751C112.469 130.892 112.633 131.069 112.757 131.273C112.881 131.477 112.963 131.704 112.998 131.94C113.034 132.176 113.022 132.417 112.964 132.648C112.854 133.039 112.62 133.383 112.296 133.628C111.973 133.874 111.578 134.006 111.172 134.006Z" fill="white"/>
<path d="M96.7393 133.175C96.4873 133.176 96.2377 133.125 96.0056 133.027C95.7734 132.93 95.5633 132.786 95.3879 132.605C90.888 127.882 88.3426 122.601 87.3848 115.998V115.963C86.8471 111.591 87.6343 105.402 91.4911 101.147C94.338 98.0071 98.3401 96.4111 103.366 96.4111C109.309 96.4111 113.979 99.1745 116.892 104.39C119.005 108.179 119.424 111.955 119.435 112.11C119.457 112.349 119.432 112.59 119.361 112.819C119.289 113.048 119.174 113.261 119.02 113.446C118.867 113.63 118.678 113.782 118.466 113.894C118.253 114.006 118.021 114.074 117.782 114.096C117.299 114.148 116.816 114.009 116.436 113.707C116.055 113.406 115.808 112.968 115.749 112.486C115.43 110.221 114.696 108.033 113.586 106.033C111.329 102.05 107.894 100.026 103.352 100.026C99.4288 100.026 96.3591 101.206 94.2472 103.538C91.2029 106.898 90.6144 112.075 91.0321 115.499C91.8713 121.338 94.1152 125.983 98.0774 130.135C98.2427 130.307 98.3718 130.51 98.457 130.733C98.5421 130.956 98.5816 131.194 98.573 131.432C98.5644 131.671 98.5079 131.905 98.407 132.121C98.306 132.337 98.1627 132.531 97.9853 132.691C97.6439 133 97.2001 133.173 96.7393 133.175Z" fill="white"/>
<path d="M117.47 127.973C113.534 127.973 110.189 126.883 107.511 124.717C102.132 120.383 101.529 113.324 101.503 113.026C101.465 112.537 101.623 112.053 101.942 111.681C102.261 111.308 102.714 111.078 103.203 111.04C103.692 111.002 104.176 111.16 104.549 111.479C104.921 111.798 105.152 112.252 105.19 112.741C105.203 112.845 105.741 118.618 109.887 121.944C112.341 123.903 115.62 124.68 119.661 124.226C120.144 124.168 120.63 124.303 121.014 124.602C121.397 124.901 121.647 125.34 121.708 125.822C121.735 126.061 121.713 126.302 121.646 126.532C121.578 126.762 121.465 126.977 121.313 127.163C121.162 127.349 120.975 127.502 120.763 127.615C120.552 127.728 120.32 127.798 120.081 127.82C119.214 127.922 118.343 127.972 117.47 127.973ZM120.58 79.8515C119.044 78.8525 113.6 75.8809 103.363 75.8809C92.6168 75.8809 87.1591 79.1637 85.9518 79.998C85.872 80.047 85.7974 80.1038 85.7289 80.1676C85.7217 80.1746 85.7123 80.1788 85.7023 80.1797C85.5095 80.348 85.3548 80.5555 85.2485 80.7883C85.1423 81.0211 85.0868 81.274 85.0859 81.5299C85.0892 81.7698 85.1399 82.0067 85.2349 82.227C85.3299 82.4473 85.4675 82.6467 85.6397 82.8138C85.8119 82.9808 86.0154 83.1122 86.2385 83.2005C86.4617 83.2888 86.7 83.3321 86.9399 83.3281C87.3244 83.3279 87.6996 83.21 88.0152 82.9903C88.0673 82.9515 92.7645 79.5004 103.366 79.5004C113.968 79.5004 118.691 82.9394 118.742 82.9648C119.064 83.2039 119.455 83.3315 119.857 83.3281C120.097 83.3318 120.335 83.288 120.558 83.1993C120.782 83.1106 120.985 82.9787 121.157 82.8112C121.329 82.6436 121.466 82.4438 121.561 82.2231C121.656 82.0024 121.706 81.7652 121.708 81.525C121.708 81.1654 121.601 80.8139 121.4 80.5157C121.199 80.2175 120.913 79.9862 120.58 79.8515Z" fill="white"/>
<path fill-rule="evenodd" clip-rule="evenodd" d="M103.36 153.445C130.146 153.445 151.86 131.731 151.86 104.945C151.86 100.798 151.34 96.7726 150.36 92.9304C150.24 92.4317 150.112 91.9359 149.976 91.4434C167.464 97.1949 180.09 113.666 180.09 133.087C180.09 142.214 177.302 150.689 172.531 157.706L193.294 178.48C196.715 181.903 196.715 187.453 193.294 190.876C189.873 194.299 184.326 194.299 180.904 190.876L159.988 169.95C153.156 174.357 145.019 176.914 136.285 176.914C119.286 176.914 104.549 167.226 97.2871 153.069C99.2765 153.317 101.303 153.445 103.36 153.445Z" fill="#171C60"/>
<path fill-rule="evenodd" clip-rule="evenodd" d="M196 0.945801C196 -3.19633 199.358 -6.5542 203.5 -6.5542L233.5 -6.5542C245.926 -6.5542 256 3.51939 256 15.9458L256 45.9458C256 50.0879 252.642 53.4458 248.5 53.4458C244.358 53.4458 241 50.0879 241 45.9458L241 15.9458C241 11.8037 237.642 8.4458 233.5 8.4458L203.5 8.4458C199.358 8.4458 196 5.08794 196 0.945801Z" fill="#FF8833"/>
<path fill-rule="evenodd" clip-rule="evenodd" d="M-0.5 53.4458C-4.64214 53.4458 -8 50.0879 -8 45.9458L-8 15.9458C-8 3.51939 2.0736 -6.5542 14.5 -6.5542L44.5 -6.5542C48.6421 -6.5542 52 -3.19633 52 0.945801C52 5.08794 48.6421 8.4458 44.5 8.4458L14.5 8.4458C10.3579 8.4458 7 11.8037 7 15.9458L7 45.9458C7 50.0879 3.64214 53.4458 -0.5 53.4458Z" fill="#FF8833"/>
<path fill-rule="evenodd" clip-rule="evenodd" d="M248.5 198.446C252.642 198.446 256 201.804 256 205.946V235.946C256 248.372 245.926 258.446 233.5 258.446H203.5C199.358 258.446 196 255.088 196 250.946C196 246.804 199.358 243.446 203.5 243.446H233.5C237.642 243.446 241 240.088 241 235.946V205.946C241 201.804 244.358 198.446 248.5 198.446Z" fill="#FF8833"/>
<path fill-rule="evenodd" clip-rule="evenodd" d="M53 250.946C53 255.088 49.6421 258.446 45.5 258.446L15.5 258.446C3.07359 258.446 -7 248.372 -7 235.946L-7 205.946C-7 201.804 -3.64214 198.446 0.5 198.446C4.64214 198.446 8 201.804 8 205.946L8 235.946C8 240.088 11.3579 243.446 15.5 243.446L45.5 243.446C49.6421 243.446 53 246.804 53 250.946Z" fill="#FF8833"/>
</g>
<defs>
<clipPath id="clip0_2_1442">
<rect y="0.445801" width="250" height="250" rx="16" fill="white"/>
</clipPath>
</defs>
</svg>
