<svg width="31" height="31" viewBox="0 0 31 31" fill="none" xmlns="http://www.w3.org/2000/svg">
<path fill-rule="evenodd" clip-rule="evenodd" d="M15.5 30.4458C23.7843 30.4458 30.5 23.7301 30.5 15.4458C30.5 7.16153 23.7843 0.445801 15.5 0.445801C7.21573 0.445801 0.5 7.16153 0.5 15.4458C0.5 23.7301 7.21573 30.4458 15.5 30.4458ZM23.6411 12.2893C23.753 12.1875 23.761 12.0144 23.659 11.9027L22.1819 10.2851C22.08 10.1734 21.9066 10.1654 21.7948 10.2672L13.8698 17.4823C13.7597 17.5826 13.5894 17.5765 13.4866 17.4686L10.8114 14.6592C10.7071 14.5497 10.5337 14.5453 10.424 14.6495L8.83521 16.1579C8.72553 16.262 8.72116 16.4352 8.82544 16.5447L13.3499 21.2962C13.4526 21.4041 13.6229 21.4101 13.7331 21.3098L23.6411 12.2893Z" fill="#A3BBDC"/>
</svg>
