<svg width="65" height="65" viewBox="0 0 65 65" fill="none" xmlns="http://www.w3.org/2000/svg">
<path d="M33.1224 63.9877L33.1186 63.9905C32.909 64.1445 32.7027 64.2961 32.5 64.4453C32.2972 64.2961 32.0909 64.1445 31.8813 63.9905L31.8775 63.9877C30.4464 62.9362 28.8596 61.7702 27.1812 60.4585C30.5711 58.4048 34.1025 55.9196 37.521 52.8455L37.9912 52.4227C41.1314 49.642 44.3025 46.3593 47.1455 42.3475C52.4091 34.9198 56.6737 24.7587 56.6 10.4201L56.5966 9.74616L55.9433 9.57698C47.5258 7.39718 37.4627 6.51592 32.5258 6.37044L32.5 6.36968L32.4741 6.37044C27.5372 6.51592 17.4741 7.39718 9.05665 9.57698L8.40334 9.74616L8.39988 10.4201C8.32618 24.7587 12.5908 34.9198 17.8544 42.3475C20.0827 45.492 22.5126 48.1885 24.9714 50.5466C23.1741 51.7754 21.3757 52.8634 19.6098 53.845C10.0357 44.3393 0.669155 29.5723 2.28223 5.41523C12.3878 1.822 26.5205 0.602595 32.4912 0.445542L32.5 0.445312L32.5085 0.445536C38.4791 0.602589 52.6121 1.822 62.7177 5.41523C63.9577 23.9854 58.7097 36.9905 51.892 46.3187C47.1323 52.831 41.5892 57.5759 36.8869 61.1795C35.5513 62.2031 34.2858 63.133 33.1224 63.9877Z" fill="white"/>
<path fill-rule="evenodd" clip-rule="evenodd" d="M50.517 18.9213C50.7345 19.1595 50.7175 19.5287 50.4789 19.7459L29.3417 38.9897C29.1066 39.2038 28.7433 39.1908 28.5241 38.9606L18.8721 28.8242C18.6496 28.5906 18.6589 28.2211 18.8929 27.9989L22.2823 24.781C22.5163 24.5588 22.8863 24.5681 23.1088 24.8018L28.8159 30.7953C29.0351 31.0255 29.3984 31.0384 29.6334 30.8244L46.54 15.4322C46.7786 15.215 47.1484 15.2321 47.3659 15.4703L50.517 18.9213Z" fill="white"/>
</svg>
