<svg width="51" height="52" viewBox="0 0 51 52" fill="none" xmlns="http://www.w3.org/2000/svg">
<g clip-path="url(#clip0_5_2230)">
<rect y="0.222656" width="51" height="51" rx="8.7931" fill="#FF8833"/>
<path d="M26.3793 0.222656H8.7931C3.93681 0.222656 0 4.15946 0 9.01576V21.5773" stroke="#FF8833" stroke-width="5.02463" stroke-linecap="round"/>
<path d="M25.4999 18.5625C20.0756 18.5625 15.4432 21.6496 13.5664 26.0073C15.4432 30.3649 20.0756 33.452 25.4999 33.452C30.9242 33.452 35.5566 30.3649 37.4334 26.0073C35.5566 21.6496 30.9242 18.5625 25.4999 18.5625ZM25.4999 30.9704C22.5057 30.9704 20.0756 28.7469 20.0756 26.0073C20.0756 23.2676 22.5057 21.0441 25.4999 21.0441C28.4941 21.0441 30.9242 23.2676 30.9242 26.0073C30.9242 28.7469 28.4941 30.9704 25.4999 30.9704ZM25.4999 23.0294C23.699 23.0294 22.2453 24.3595 22.2453 26.0073C22.2453 27.655 23.699 28.9852 25.4999 28.9852C27.3008 28.9852 28.7545 27.655 28.7545 26.0073C28.7545 24.3595 27.3008 23.0294 25.4999 23.0294Z" fill="white"/>
<path d="M24.8722 50.9717L42.4584 50.9717C47.3147 50.9717 51.2515 47.0349 51.2515 42.1786L51.2515 29.617" stroke="#FF8833" stroke-width="5.02463" stroke-linecap="round"/>
</g>
<defs>
<clipPath id="clip0_5_2230">
<rect y="0.222656" width="51" height="51" rx="8.7931" fill="white"/>
</clipPath>
</defs>
</svg>
