<svg width="46" height="46" viewBox="0 0 46 46" fill="none" xmlns="http://www.w3.org/2000/svg">
<g clip-path="url(#clip0_2_728)">
<rect x="0.888672" y="0.166992" width="45.1111" height="45.1111" rx="7.77778" fill="white"/>
<path d="M24.222 0.166992H8.66645C4.3709 0.166992 0.888672 3.64922 0.888672 7.94477V19.0559" stroke="#FF8833" stroke-width="4.44444" stroke-linecap="round"/>
<path d="M23.4442 16.3896C18.6462 16.3896 14.5488 19.1203 12.8887 22.9748C14.5488 26.8293 18.6462 29.5599 23.4442 29.5599C28.2422 29.5599 32.3397 26.8293 33.9998 22.9748C32.3397 19.1203 28.2422 16.3896 23.4442 16.3896ZM23.4442 27.3648C20.7957 27.3648 18.6462 25.3981 18.6462 22.9748C18.6462 20.5514 20.7957 18.5847 23.4442 18.5847C26.0927 18.5847 28.2422 20.5514 28.2422 22.9748C28.2422 25.3981 26.0927 27.3648 23.4442 27.3648ZM23.4442 20.3407C21.8513 20.3407 20.5654 21.5173 20.5654 22.9748C20.5654 24.4323 21.8513 25.6088 23.4442 25.6088C25.0372 25.6088 26.323 24.4323 26.323 22.9748C26.323 21.5173 25.0372 20.3407 23.4442 20.3407Z" fill="#FF8833"/>
<path d="M22.8888 45.0557L38.4444 45.0557C42.7399 45.0557 46.2222 41.5734 46.2222 37.2779L46.2222 26.1668" stroke="#FF8833" stroke-width="4.44444" stroke-linecap="round"/>
</g>
<defs>
<clipPath id="clip0_2_728">
<rect x="0.888672" y="0.166992" width="45.1111" height="45.1111" rx="7.77778" fill="white"/>
</clipPath>
</defs>
</svg>
