<svg width="65" height="65" viewBox="0 0 65 65" fill="none" xmlns="http://www.w3.org/2000/svg">
<rect x="0.5" y="0.445312" width="64" height="64" rx="32" fill="#F6F7F9"/>
<path d="M36.2911 18.1016C34.2747 18.1016 32.3409 18.9026 30.9151 20.3284C29.4894 21.7541 28.6884 23.6879 28.6884 25.7043V29.9372H24.6199C24.416 29.9372 24.25 30.1016 24.25 30.307V35.8961C24.25 36.0999 24.4144 36.2659 24.6199 36.2659H28.6884V47.7317C28.6884 47.9355 28.8527 48.1016 29.0582 48.1016H34.6473C34.8511 48.1016 35.0171 47.9372 35.0171 47.7317V36.2659H39.1218C39.2911 36.2659 39.439 36.1509 39.4801 35.9865L40.8774 30.3975C40.8911 30.3429 40.8923 30.286 40.8807 30.2309C40.8691 30.1759 40.8451 30.1242 40.8106 30.0798C40.776 30.0354 40.7318 29.9995 40.6813 29.9748C40.6308 29.9501 40.5753 29.9372 40.519 29.9372H35.0171V25.7043C35.0171 25.537 35.0501 25.3713 35.1141 25.2168C35.1781 25.0622 35.272 24.9218 35.3903 24.8035C35.5086 24.6852 35.649 24.5913 35.8036 24.5273C35.9581 24.4633 36.1238 24.4303 36.2911 24.4303H40.5651C40.7689 24.4303 40.9349 24.2659 40.9349 24.0605V18.4714C40.9349 18.2676 40.7705 18.1016 40.5651 18.1016H36.2911Z" fill="#1956A8"/>
</svg>
