
<svg width="24" height="23" viewBox="0 0 24 23" fill="none" xmlns="http://www.w3.org/2000/svg">
<g id="Icons">
<path id="Subtract" fill-rule="evenodd" clip-rule="evenodd" d="M11.8 22.8849C18.0408 22.8849 23.1 17.8257 23.1 11.5849C23.1 5.34409 18.0408 0.284912 11.8 0.284912C5.55918 0.284912 0.5 5.34409 0.5 11.5849C0.5 17.8257 5.55918 22.8849 11.8 22.8849ZM17.933 9.207C18.0172 9.13029 18.0233 8.99991 17.9465 8.91579L16.8337 7.69717C16.7569 7.61304 16.6263 7.60702 16.5421 7.68372L10.5719 13.1191C10.4889 13.1946 10.3607 13.1901 10.2832 13.1088L8.26793 10.9923C8.18936 10.9098 8.05869 10.9065 7.97607 10.985L6.77919 12.1213C6.69656 12.1998 6.69327 12.3303 6.77183 12.4128L10.1802 15.9922C10.2576 16.0735 10.3859 16.078 10.4689 16.0025L17.933 9.207Z" fill="#17EB79"/>
</g>
</svg>
