<svg width="46" height="46" viewBox="0 0 46 46" fill="none" xmlns="http://www.w3.org/2000/svg">
<g clip-path="url(#clip0_6_888)">
<rect width="45.1111" height="45.1111" rx="7.77778" />
<path d="M23.3333 0H7.77778C3.48223 0 0 3.48223 0 7.77778V18.8889" stroke="#1956A8" stroke-width="4.44444" stroke-linecap="round"/>
<path d="M13.4521 32.3208C13.4521 27.2191 17.5879 23.0833 22.6897 23.0833C27.7914 23.0833 31.9272 27.2191 31.9272 32.3208V33.0598H13.4521V32.3208Z" fill="#1956A8"/>
<path d="M27.3405 16.7421C27.3405 19.361 25.2174 21.4841 22.5985 21.4841C19.9795 21.4841 17.8564 19.361 17.8564 16.7421C17.8564 14.1231 19.9795 12 22.5985 12C25.2174 12 27.3405 14.1231 27.3405 16.7421Z" fill="#1956A8"/>
<path d="M22.0002 44.8887L37.5557 44.8887C41.8513 44.8887 45.3335 41.4064 45.3335 37.1109L45.3335 25.9998" stroke="#1956A8" stroke-width="4.44444" stroke-linecap="round"/>
</g>
<defs>
<clipPath id="clip0_6_888">
<rect width="45.1111" height="45.1111" rx="7.77778" />
</clipPath>
</defs>
</svg>
