<svg width="46" height="46" viewBox="0 0 46 46" fill="none" xmlns="http://www.w3.org/2000/svg">
<g clip-path="url(#clip0_6_896)">
<rect x="0.111328" width="45.1111" height="45.1111" rx="7.77778"/>
<path d="M23.4447 0H7.88911C3.59356 0 0.111328 3.48223 0.111328 7.77778V18.8889" stroke="#171C60" stroke-width="4.44444" stroke-linecap="round"/>
<path d="M12.1113 32.5288C12.1113 28.3023 15.5376 24.876 19.7641 24.876C23.9906 24.876 27.4169 28.3023 27.4169 32.5288V33.141H12.1113V32.5288Z" fill="#171C60"/>
<path d="M23.6172 19.6229C23.6172 21.7925 21.8583 23.5514 19.6887 23.5514C17.519 23.5514 15.7601 21.7925 15.7601 19.6229C15.7601 17.4532 17.519 15.6943 19.6887 15.6943C21.8583 15.6943 23.6172 17.4532 23.6172 19.6229Z" fill="#171C60"/>
<path d="M20.5557 32.6185C20.5557 29.1207 23.3912 26.2852 26.889 26.2852C30.3868 26.2852 33.2223 29.1207 33.2223 32.6185V33.1252H20.5557V32.6185Z" fill="#152235"/>
<path d="M30.0778 21.9377C30.0778 23.7333 28.6222 25.1889 26.8266 25.1889C25.031 25.1889 23.5754 23.7333 23.5754 21.9377C23.5754 20.1421 25.031 18.6865 26.8266 18.6865C28.6222 18.6865 30.0778 20.1421 30.0778 21.9377Z" fill="#152235"/>
<path d="M22.1115 44.8887L37.667 44.8887C41.9626 44.8887 45.4448 41.4064 45.4448 37.1109L45.4448 25.9998" stroke="#171C60" stroke-width="4.44444" stroke-linecap="round"/>
</g>
<defs>
<clipPath id="clip0_6_896">
<rect x="0.111328" width="45.1111" height="45.1111" rx="7.77778"/>
</clipPath>
</defs>
</svg>
