<svg width="65" height="65" viewBox="0 0 65 65" fill="none" xmlns="http://www.w3.org/2000/svg">
<rect x="0.833252" y="0.445312" width="64" height="64" rx="32" fill="#F6F7F9"/>
<path d="M37.6333 32.4453C37.6333 33.3947 37.3517 34.3227 36.8243 35.112C36.2969 35.9014 35.5472 36.5166 34.6701 36.8799C33.793 37.2432 32.8279 37.3383 31.8968 37.1531C30.9657 36.9679 30.1104 36.5107 29.4391 35.8394C28.7678 35.1681 28.3107 34.3129 28.1255 33.3817C27.9403 32.4506 28.0353 31.4855 28.3986 30.6084C28.7619 29.7313 29.3772 28.9817 30.1665 28.4543C30.9559 27.9268 31.8839 27.6453 32.8333 27.6453C34.1051 27.6493 35.3237 28.1563 36.223 29.0556C37.1223 29.9549 37.6293 31.1735 37.6333 32.4453ZM47.8333 25.8453V39.0453C47.8333 41.2731 46.9483 43.4097 45.3729 44.985C43.7976 46.5603 41.6611 47.4453 39.4333 47.4453H26.2333C24.0054 47.4453 21.8689 46.5603 20.2936 44.985C18.7182 43.4097 17.8333 41.2731 17.8333 39.0453V25.8453C17.8333 23.6175 18.7182 21.4809 20.2936 19.9056C21.8689 18.3303 24.0054 17.4453 26.2333 17.4453H39.4333C41.6611 17.4453 43.7976 18.3303 45.3729 19.9056C46.9483 21.4809 47.8333 23.6175 47.8333 25.8453ZM40.0333 32.4453C40.0333 31.0213 39.611 29.6292 38.8198 28.4452C38.0287 27.2612 36.9042 26.3383 35.5886 25.7934C34.2729 25.2484 32.8253 25.1058 31.4286 25.3837C30.0319 25.6615 28.749 26.3472 27.7421 27.3541C26.7351 28.3611 26.0494 29.644 25.7716 31.0407C25.4938 32.4373 25.6364 33.885 26.1813 35.2006C26.7263 36.5163 27.6491 37.6407 28.8331 38.4319C30.0172 39.223 31.4092 39.6453 32.8333 39.6453C34.7428 39.6453 36.5742 38.8867 37.9244 37.5365C39.2747 36.1862 40.0333 34.3549 40.0333 32.4453ZM42.4333 24.6453C42.4333 24.2893 42.3277 23.9413 42.1299 23.6453C41.9321 23.3493 41.651 23.1186 41.3221 22.9823C40.9932 22.8461 40.6313 22.8104 40.2821 22.8799C39.9329 22.9494 39.6122 23.1208 39.3605 23.3725C39.1087 23.6243 38.9373 23.945 38.8678 24.2941C38.7984 24.6433 38.834 25.0052 38.9703 25.3341C39.1065 25.663 39.3372 25.9442 39.6332 26.142C39.9292 26.3397 40.2772 26.4453 40.6333 26.4453C41.1106 26.4453 41.5685 26.2557 41.906 25.9181C42.2436 25.5805 42.4333 25.1227 42.4333 24.6453Z" fill="#1956A8"/>
</svg>
