<svg width="1366" height="6320" viewBox="0 0 1366 6320" fill="none" xmlns="http://www.w3.org/2000/svg">
<g filter="url(#filter0_d_301_1345)">
<path d="M644.328 5189.75C561.441 4788.43 334.603 4439.47 3.09943 4208.27C-18.7173 4195.19 -44.8851 4199.54 -57.9683 4217.01C-71.0522 4238.82 -66.7011 4264.99 -49.2355 4278.07C264.836 4496.18 478.594 4827.69 557.096 5207.2C578.913 5311.9 587.646 5420.95 587.646 5534.36C587.646 5560.53 605.081 5577.99 631.279 5577.99C657.447 5577.99 674.913 5560.56 674.913 5534.36C674.882 5412.22 666.149 5298.79 644.333 5189.74L644.328 5189.75Z" fill="white"/>
</g>
<g filter="url(#filter1_d_301_1345)">
<path d="M181.937 5285.71C186.288 5307.53 190.67 5333.7 195.021 5355.52C199.372 5381.68 203.754 5407.85 208.105 5434.02C212.456 5455.83 229.922 5468.92 251.739 5468.92H260.471C282.288 5464.57 299.723 5442.75 295.372 5416.58C291.021 5390.41 286.639 5364.25 282.288 5342.43C277.937 5316.26 273.555 5294.45 269.204 5268.28C138.333 4622.7 -494.163 4199.56 -1144.12 4330.43C-1623.96 4426.39 -2003.45 4814.62 -2086.33 5298.81C-2090.68 5320.63 -2073.25 5346.8 -2051.43 5351.15C-2029.61 5355.5 -2003.44 5338.07 -1999.09 5316.25C-1920.59 4866.95 -1571.62 4504.9 -1126.67 4417.66C-524.696 4295.52 59.8181 4683.74 181.957 5285.71L181.937 5285.71Z" fill="white"/>
</g>
<g filter="url(#filter2_d_301_1345)">
<path d="M-481.105 4177.74C-502.922 4169 -529.09 4182.09 -537.822 4203.91C-546.554 4225.72 -533.47 4251.89 -511.654 4260.62C-62.3573 4404.57 273.524 4779.72 365.128 5246.46C430.548 5564.88 443.631 5892.04 404.38 6223.57C400.029 6245.38 417.464 6267.2 443.632 6271.55H447.984C469.8 6271.55 487.235 6254.12 491.617 6232.3C530.869 5892.06 517.785 5556.17 452.365 5229.02C356.43 4736.09 -1.27789 4334.79 -481.125 4177.75L-481.105 4177.74Z" fill="white"/>
</g>
<g filter="url(#filter3_d_301_1345)">
<path fill-rule="evenodd" clip-rule="evenodd" d="M-700.169 645.5C-708.011 657.25 -719.762 661.158 -731.513 661.158L-731.503 661.162C-739.346 661.162 -747.162 657.254 -755.004 653.319C-770.69 641.569 -774.598 614.133 -762.847 598.474C-555.201 308.559 -245.725 112.679 102.941 42.1762C408.513 -20.5123 729.742 22.5813 1007.91 159.711C1027.5 167.553 1035.34 191.055 1027.5 210.648C1019.66 230.242 996.155 238.085 976.562 230.242C710.158 100.955 408.518 61.7963 118.609 120.549C-210.469 187.141 -504.289 371.275 -700.169 645.5ZM1199.87 269.399C1497.59 477.031 1701.31 790.439 1775.76 1150.86L1775.76 1150.85C1795.35 1248.79 1803.2 1350.66 1803.22 1460.35C1803.22 1483.88 1787.54 1499.54 1764.04 1499.54C1740.51 1499.54 1724.85 1483.85 1724.85 1460.35C1724.85 1358.5 1717.01 1260.56 1697.41 1166.53C1626.91 825.697 1434.93 527.966 1152.87 332.087C1137.18 320.337 1133.27 296.835 1145.02 277.242C1156.77 261.556 1180.28 257.648 1199.87 269.399ZM-758.934 1660.14C-888.194 1029.41 -476.867 414.35 153.865 285.069C271.4 261.568 400.681 257.633 541.714 273.319C565.215 277.226 580.901 261.568 584.809 238.067C588.717 218.473 573.058 198.88 549.557 194.972C400.681 175.378 263.58 179.313 138.203 206.722C-535.623 343.824 -974.394 1001.99 -837.278 1675.82C-817.685 1773.76 -845.121 1871.7 -915.623 1946.14C-927.374 1961.8 -927.374 1989.24 -911.715 2000.99C-903.872 2008.83 -896.057 2012.74 -884.279 2012.74C-872.528 2012.74 -864.685 2008.83 -856.842 2000.99C-770.683 1906.96 -735.404 1781.58 -758.931 1660.13L-758.934 1660.14ZM714.069 265.475C721.912 245.882 745.413 234.131 765.007 241.974L764.989 241.986C1195.94 383.019 1517.2 743.431 1603.35 1186.13C1662.11 1479.94 1673.86 1781.6 1638.61 2087.17C1634.67 2106.77 1619.01 2122.42 1599.42 2122.42H1595.51C1572.01 2118.52 1556.35 2098.92 1560.26 2079.33C1595.51 1781.59 1583.76 1487.77 1525.01 1201.79C1442.74 782.613 1141.08 445.693 737.571 316.412C717.977 308.57 706.227 285.069 714.069 265.475Z" fill="white"/>
</g>
<g filter="url(#filter4_d_301_1345)">
<path d="M1203.46 2750.4C1180.29 2741.12 1152.49 2755.02 1143.22 2778.19C1064.46 2977.39 948.636 3162.72 800.373 3315.62C781.855 3334.14 781.855 3361.96 800.373 3380.48C809.648 3389.76 818.891 3394.38 832.819 3394.38C846.716 3394.38 855.991 3389.76 865.266 3380.48C1022.78 3218.31 1147.88 3023.73 1226.64 2815.26C1235.91 2782.85 1226.63 2759.67 1203.46 2750.4Z" fill="white"/>
</g>
<g filter="url(#filter5_d_301_1345)">
<path d="M1708.46 1786.74C1680.67 1652.4 1550.95 1564.37 1411.95 1587.54C1277.61 1615.33 1189.58 1745.05 1212.75 1884.05C1254.44 2097.18 1254.44 2319.56 1208.13 2528.03C1203.51 2551.2 1217.4 2578.99 1245.2 2583.62C1268.37 2588.24 1296.16 2574.34 1300.78 2546.55C1347.09 2324.17 1351.71 2092.53 1305.37 1865.54C1291.47 1777.5 1347.06 1694.12 1430.47 1680.23C1518.5 1666.34 1601.88 1721.92 1620.43 1805.33C1736.25 2384.45 1592.64 2972.84 1235.89 3431.5C1222 3450.02 1222 3482.46 1245.17 3496.36C1254.44 3500.98 1263.69 3505.64 1272.96 3505.64C1286.86 3505.64 1300.75 3501.01 1310.03 3487.12C1680.67 3009.86 1824.28 2389.02 1708.46 1786.74Z" fill="white"/>
</g>
<g filter="url(#filter6_d_301_1345)">
<path d="M1124.71 2004.49C1120.09 1981.32 1096.92 1962.8 1073.75 1962.8C1050.58 1967.43 1032.06 1990.6 1032.06 2013.77C1092.3 2453.89 934.749 2903.3 605.826 3209.07C587.308 3227.59 587.308 3255.41 605.826 3273.93C615.101 3283.21 628.997 3287.83 638.272 3287.83C647.547 3287.83 661.444 3283.21 670.719 3273.93C1018.16 2949.63 1189.57 2472.44 1124.71 2004.5L1124.71 2004.49Z" fill="white"/>
</g>
<g filter="url(#filter7_d_301_1345)">
<path d="M1370.25 1392.94C1189.56 1430.01 1050.57 1569 1013.5 1749.69C1008.88 1772.86 1022.78 1800.65 1050.57 1805.27C1073.74 1809.89 1101.54 1796 1106.16 1768.2C1133.95 1624.59 1245.15 1513.38 1388.77 1485.59C1481.42 1467.08 1578.73 1485.59 1662.1 1536.56C1740.86 1592.14 1796.44 1670.9 1819.62 1768.21C1847.41 1907.2 1865.96 2050.82 1865.96 2199.05C1865.96 2226.85 1884.48 2245.4 1912.3 2245.4C1940.09 2245.4 1958.64 2226.88 1958.64 2199.05C1958.64 2046.17 1944.75 1893.27 1912.3 1749.66C1889.13 1629.21 1819.65 1527.28 1717.72 1457.77C1611.17 1392.94 1490.72 1369.77 1370.25 1392.94Z" fill="white"/>
</g>
<g filter="url(#filter8_d_301_1345)">
<path d="M906.954 1948.9C874.508 1800.62 906.954 1652.39 990.331 1527.29C1073.71 1402.19 1203.46 1314.15 1347.08 1281.74C1411.94 1272.47 1462.9 1267.84 1509.25 1272.47C1532.42 1272.47 1555.59 1253.95 1560.21 1230.78C1560.21 1202.98 1541.69 1184.43 1518.52 1179.81C1462.94 1175.19 1407.32 1179.81 1333.22 1189.09C1161.81 1226.16 1013.54 1328.08 916.271 1471.7C818.962 1619.97 786.548 1796 818.962 1967.44C902.339 2379.77 758.724 2810.64 434.426 3093.25C415.909 3111.77 411.255 3139.59 429.805 3158.11C439.08 3167.38 452.977 3172.01 462.252 3172.01C471.527 3172.01 485.423 3167.38 494.698 3158.11C837.487 2856.98 999.649 2393.69 906.965 1948.91L906.954 1948.9Z" fill="white"/>
</g>
<defs>
<filter id="filter0_d_301_1345" x="-97.5781" y="4184.66" width="804.491" height="1441.33" filterUnits="userSpaceOnUse" color-interpolation-filters="sRGB">
<feFlood flood-opacity="0" result="BackgroundImageFix"/>
<feColorMatrix in="SourceAlpha" type="matrix" values="0 0 0 0 0 0 0 0 0 0 0 0 0 0 0 0 0 0 127 0" result="hardAlpha"/>
<feOffset dy="16"/>
<feGaussianBlur stdDeviation="16"/>
<feComposite in2="hardAlpha" operator="out"/>
<feColorMatrix type="matrix" values="0 0 0 0 0.0980392 0 0 0 0 0.337255 0 0 0 0 0.658824 0 0 0 0.1 0"/>
<feBlend mode="normal" in2="BackgroundImageFix" result="effect1_dropShadow_301_1345"/>
<feBlend mode="normal" in="SourceGraphic" in2="effect1_dropShadow_301_1345" result="shape"/>
</filter>
<filter id="filter1_d_301_1345" x="-2119" y="4290.67" width="2447.04" height="1226.25" filterUnits="userSpaceOnUse" color-interpolation-filters="sRGB">
<feFlood flood-opacity="0" result="BackgroundImageFix"/>
<feColorMatrix in="SourceAlpha" type="matrix" values="0 0 0 0 0 0 0 0 0 0 0 0 0 0 0 0 0 0 127 0" result="hardAlpha"/>
<feOffset dy="16"/>
<feGaussianBlur stdDeviation="16"/>
<feComposite in2="hardAlpha" operator="out"/>
<feColorMatrix type="matrix" values="0 0 0 0 0.0980392 0 0 0 0 0.337255 0 0 0 0 0.658824 0 0 0 0.1 0"/>
<feBlend mode="normal" in2="BackgroundImageFix" result="effect1_dropShadow_301_1345"/>
<feBlend mode="normal" in="SourceGraphic" in2="effect1_dropShadow_301_1345" result="shape"/>
</filter>
<filter id="filter2_d_301_1345" x="-572.559" y="4159" width="1118.25" height="2160.55" filterUnits="userSpaceOnUse" color-interpolation-filters="sRGB">
<feFlood flood-opacity="0" result="BackgroundImageFix"/>
<feColorMatrix in="SourceAlpha" type="matrix" values="0 0 0 0 0 0 0 0 0 0 0 0 0 0 0 0 0 0 127 0" result="hardAlpha"/>
<feOffset dy="16"/>
<feGaussianBlur stdDeviation="16"/>
<feComposite in2="hardAlpha" operator="out"/>
<feColorMatrix type="matrix" values="0 0 0 0 0.0980392 0 0 0 0 0.337255 0 0 0 0 0.658824 0 0 0 0.1 0"/>
<feBlend mode="normal" in2="BackgroundImageFix" result="effect1_dropShadow_301_1345"/>
<feBlend mode="normal" in="SourceGraphic" in2="effect1_dropShadow_301_1345" result="shape"/>
</filter>
<filter id="filter3_d_301_1345" x="-951.059" y="0.470528" width="2781.34" height="2162.54" filterUnits="userSpaceOnUse" color-interpolation-filters="sRGB">
<feFlood flood-opacity="0" result="BackgroundImageFix"/>
<feColorMatrix in="SourceAlpha" type="matrix" values="0 0 0 0 0 0 0 0 0 0 0 0 0 0 0 0 0 0 127 0" result="hardAlpha"/>
<feOffset dy="13.5295"/>
<feGaussianBlur stdDeviation="13.5295"/>
<feComposite in2="hardAlpha" operator="out"/>
<feColorMatrix type="matrix" values="0 0 0 0 0.909804 0 0 0 0 0.937255 0 0 0 0 0.984314 0 0 0 1 0"/>
<feBlend mode="normal" in2="BackgroundImageFix" result="effect1_dropShadow_301_1345"/>
<feBlend mode="normal" in="SourceGraphic" in2="effect1_dropShadow_301_1345" result="shape"/>
</filter>
<filter id="filter4_d_301_1345" x="754.484" y="2731.49" width="507.706" height="710.888" filterUnits="userSpaceOnUse" color-interpolation-filters="sRGB">
<feFlood flood-opacity="0" result="BackgroundImageFix"/>
<feColorMatrix in="SourceAlpha" type="matrix" values="0 0 0 0 0 0 0 0 0 0 0 0 0 0 0 0 0 0 127 0" result="hardAlpha"/>
<feOffset dy="16"/>
<feGaussianBlur stdDeviation="16"/>
<feComposite in2="hardAlpha" operator="out"/>
<feColorMatrix type="matrix" values="0 0 0 0 0.0980392 0 0 0 0 0.337255 0 0 0 0 0.658824 0 0 0 0.1 0"/>
<feBlend mode="normal" in2="BackgroundImageFix" result="effect1_dropShadow_301_1345"/>
<feBlend mode="normal" in="SourceGraphic" in2="effect1_dropShadow_301_1345" result="shape"/>
</filter>
<filter id="filter5_d_301_1345" x="1175.25" y="1567.84" width="604.356" height="1985.79" filterUnits="userSpaceOnUse" color-interpolation-filters="sRGB">
<feFlood flood-opacity="0" result="BackgroundImageFix"/>
<feColorMatrix in="SourceAlpha" type="matrix" values="0 0 0 0 0 0 0 0 0 0 0 0 0 0 0 0 0 0 127 0" result="hardAlpha"/>
<feOffset dy="16"/>
<feGaussianBlur stdDeviation="16"/>
<feComposite in2="hardAlpha" operator="out"/>
<feColorMatrix type="matrix" values="0 0 0 0 0.0980392 0 0 0 0 0.337255 0 0 0 0 0.658824 0 0 0 0.1 0"/>
<feBlend mode="normal" in2="BackgroundImageFix" result="effect1_dropShadow_301_1345"/>
<feBlend mode="normal" in="SourceGraphic" in2="effect1_dropShadow_301_1345" result="shape"/>
</filter>
<filter id="filter6_d_301_1345" x="559.938" y="1946.8" width="610.284" height="1389.02" filterUnits="userSpaceOnUse" color-interpolation-filters="sRGB">
<feFlood flood-opacity="0" result="BackgroundImageFix"/>
<feColorMatrix in="SourceAlpha" type="matrix" values="0 0 0 0 0 0 0 0 0 0 0 0 0 0 0 0 0 0 127 0" result="hardAlpha"/>
<feOffset dy="16"/>
<feGaussianBlur stdDeviation="16"/>
<feComposite in2="hardAlpha" operator="out"/>
<feColorMatrix type="matrix" values="0 0 0 0 0.0980392 0 0 0 0 0.337255 0 0 0 0 0.658824 0 0 0 0.1 0"/>
<feBlend mode="normal" in2="BackgroundImageFix" result="effect1_dropShadow_301_1345"/>
<feBlend mode="normal" in="SourceGraphic" in2="effect1_dropShadow_301_1345" result="shape"/>
</filter>
<filter id="filter7_d_301_1345" x="980.629" y="1368.18" width="1010.02" height="925.221" filterUnits="userSpaceOnUse" color-interpolation-filters="sRGB">
<feFlood flood-opacity="0" result="BackgroundImageFix"/>
<feColorMatrix in="SourceAlpha" type="matrix" values="0 0 0 0 0 0 0 0 0 0 0 0 0 0 0 0 0 0 127 0" result="hardAlpha"/>
<feOffset dy="16"/>
<feGaussianBlur stdDeviation="16"/>
<feComposite in2="hardAlpha" operator="out"/>
<feColorMatrix type="matrix" values="0 0 0 0 0.0980392 0 0 0 0 0.337255 0 0 0 0 0.658824 0 0 0 0.1 0"/>
<feBlend mode="normal" in2="BackgroundImageFix" result="effect1_dropShadow_301_1345"/>
<feBlend mode="normal" in="SourceGraphic" in2="effect1_dropShadow_301_1345" result="shape"/>
</filter>
<filter id="filter8_d_301_1345" x="386" y="1162" width="1206.21" height="2058.01" filterUnits="userSpaceOnUse" color-interpolation-filters="sRGB">
<feFlood flood-opacity="0" result="BackgroundImageFix"/>
<feColorMatrix in="SourceAlpha" type="matrix" values="0 0 0 0 0 0 0 0 0 0 0 0 0 0 0 0 0 0 127 0" result="hardAlpha"/>
<feOffset dy="16"/>
<feGaussianBlur stdDeviation="16"/>
<feComposite in2="hardAlpha" operator="out"/>
<feColorMatrix type="matrix" values="0 0 0 0 0.0980392 0 0 0 0 0.337255 0 0 0 0 0.658824 0 0 0 0.1 0"/>
<feBlend mode="normal" in2="BackgroundImageFix" result="effect1_dropShadow_301_1345"/>
<feBlend mode="normal" in="SourceGraphic" in2="effect1_dropShadow_301_1345" result="shape"/>
</filter>
</defs>
</svg>
