<svg width="65" height="65" viewBox="0 0 65 65" fill="none" xmlns="http://www.w3.org/2000/svg">
<rect x="0.5" y="0.445312" width="64" height="64" rx="32" fill="#F6F7F9"/>
<path d="M23.7959 21.3439C23.7955 22.1788 23.4634 22.9793 22.8728 23.5693C22.2821 24.1594 21.4813 24.4907 20.6464 24.4902C19.8115 24.4898 19.011 24.1578 18.4209 23.5671C17.8308 22.9765 17.4996 22.1756 17.5 21.3407C17.5004 20.5058 17.8325 19.7053 18.4231 19.1152C19.0138 18.5252 19.8146 18.1939 20.6495 18.1943C21.4844 18.1948 22.2849 18.5268 22.875 19.1175C23.4651 19.7081 23.7963 20.509 23.7959 21.3439ZM23.8903 26.8213H17.5944V46.5275H23.8903V26.8213ZM33.8379 26.8213H27.5735V46.5275H33.7749V36.1865C33.7749 30.4257 41.2828 29.8906 41.2828 36.1865V46.5275H47.5V34.0459C47.5 24.3344 36.3877 24.6964 33.7749 29.4656L33.8379 26.8213Z" fill="#1956A8"/>
</svg>
