<svg width="375" height="375" viewBox="0 0 375 375" fill="none" xmlns="http://www.w3.org/2000/svg">
<g clip-path="url(#clip0_1_1717)">
<rect width="374.5" height="374.5" rx="23.968" fill="white"/>
<path d="M81.2827 254.91C81.2827 220.023 109.564 191.741 144.451 191.741H154.971C189.858 191.741 218.139 220.023 218.139 254.91V265.644H81.2827V254.91Z" fill="#5E89C2"/>
<path d="M157.082 254.91C157.082 220.023 185.363 191.741 220.25 191.741H230.77C265.657 191.741 293.938 220.023 293.938 254.91V265.644H157.082V254.91Z" fill="#1956A8"/>
<path fill-rule="evenodd" clip-rule="evenodd" d="M157.082 265.641H218.079V254.907C218.079 231.977 205.861 211.9 187.58 200.832C169.299 211.9 157.082 231.977 157.082 254.907V265.641Z" fill="#FFA05C"/>
<ellipse cx="149.232" cy="143.995" rx="35.1275" ry="35.1276" fill="#5E89C2"/>
<ellipse cx="225.155" cy="143.995" rx="35.1275" ry="35.1276" fill="#1956A8"/>
<path fill-rule="evenodd" clip-rule="evenodd" d="M293.608 0.74855C293.608 -5.45637 298.638 -10.4865 304.843 -10.4865L349.783 -10.4865C368.398 -10.4865 383.488 4.60379 383.488 23.2186L383.488 68.1586C383.488 74.3635 378.458 79.3936 372.253 79.3936C366.048 79.3936 361.018 74.3635 361.018 68.1586L361.018 23.2186C361.018 17.0136 355.988 11.9835 349.783 11.9835L304.843 11.9836C298.638 11.9836 293.608 6.95348 293.608 0.74855Z" fill="#FF8833"/>
<path fill-rule="evenodd" clip-rule="evenodd" d="M-0.749008 79.3935C-6.95393 79.3935 -11.984 74.3635 -11.984 68.1585L-11.984 23.2185C-11.984 4.60379 3.10624 -10.4865 21.721 -10.4865L66.661 -10.4865C72.8659 -10.4865 77.896 -5.45637 77.896 0.74855C77.896 6.95348 72.8659 11.9836 66.661 11.9836L21.721 11.9835C15.5161 11.9835 10.486 17.0136 10.486 23.2185L10.486 68.1585C10.486 74.3635 5.45592 79.3935 -0.749008 79.3935Z" fill="#FF8833"/>
<path fill-rule="evenodd" clip-rule="evenodd" d="M372.253 296.604C378.458 296.604 383.488 301.634 383.488 307.839V352.779C383.488 371.393 368.398 386.484 349.783 386.484H304.843C298.638 386.484 293.608 381.453 293.608 375.249C293.608 369.044 298.638 364.014 304.843 364.014H349.783C355.988 364.014 361.018 358.983 361.018 352.779V307.839C361.018 301.634 366.048 296.604 372.253 296.604Z" fill="#FF8833"/>
<path fill-rule="evenodd" clip-rule="evenodd" d="M79.394 375.249C79.394 381.453 74.364 386.484 68.159 386.484L23.219 386.484C4.60428 386.484 -10.486 371.393 -10.486 352.779L-10.486 307.839C-10.486 301.634 -5.45588 296.604 0.749039 296.604C6.95396 296.604 11.984 301.634 11.984 307.839L11.984 352.779C11.984 358.983 17.0141 364.014 23.219 364.014L68.159 364.014C74.364 364.014 79.394 369.044 79.394 375.249Z" fill="#FF8833"/>
</g>
<defs>
<clipPath id="clip0_1_1717">
<rect width="374.5" height="374.5" rx="23.968" fill="white"/>
</clipPath>
</defs>
</svg>
