<svg width="375" height="375" viewBox="0 0 375 375" fill="none" xmlns="http://www.w3.org/2000/svg">
<g clip-path="url(#clip0_1_1740)">
<rect x="0.25" y="0.445312" width="374.5" height="374.5" rx="23.968" fill="white"/>
<circle cx="155.085" cy="156.986" r="72.653" fill="#454980"/>
<path fill-rule="evenodd" clip-rule="evenodd" d="M155.085 229.639C195.21 229.639 227.738 197.111 227.738 156.986C227.738 150.05 226.766 143.342 224.951 136.989C218.585 134.896 211.79 133.765 204.735 133.765C168.627 133.765 139.356 163.389 139.356 199.932C139.356 210.392 141.754 220.286 146.025 229.08C148.993 229.449 152.017 229.639 155.085 229.639Z" fill="#FFA05C"/>
<path d="M120.128 147.188C119.639 147.193 119.157 147.068 118.731 146.826C118.419 146.65 118.145 146.414 117.926 146.132C117.706 145.849 117.545 145.526 117.451 145.18C117.358 144.835 117.335 144.474 117.383 144.119C117.43 143.764 117.549 143.423 117.73 143.114C121.227 137.277 131.868 123.652 155.087 123.652C165.149 123.652 173.974 126.295 181.305 131.505C187.338 135.78 190.719 140.62 192.33 142.951C192.534 143.245 192.678 143.576 192.752 143.927C192.826 144.277 192.83 144.638 192.762 144.989C192.694 145.341 192.557 145.675 192.358 145.973C192.16 146.27 191.903 146.525 191.605 146.722C190.994 147.126 190.25 147.276 189.531 147.14C188.812 147.005 188.174 146.595 187.752 145.997C184.837 141.804 175.948 129.049 155.087 129.049C134.725 129.049 125.519 140.787 122.521 145.821C122.28 146.241 121.931 146.589 121.51 146.83C121.09 147.07 120.613 147.194 120.128 147.188Z" fill="white"/>
<path d="M166.786 200.519C166.555 200.522 166.324 200.496 166.099 200.441C149.256 196.269 142.967 179.432 142.711 178.732L142.671 178.577C142.534 178.091 139.154 166.545 144.342 159.783C146.72 156.699 150.337 155.117 155.113 155.117C159.554 155.117 162.758 156.498 164.96 159.355C166.774 161.687 167.499 164.564 168.201 167.336C169.676 173.108 170.741 176.139 176.87 176.451C179.562 176.587 181.331 175.013 182.334 173.672C185.046 170.017 185.518 164.058 183.473 158.798C180.847 152.008 171.525 139.207 155.088 139.207C148.072 139.207 141.625 141.461 136.455 145.699C132.176 149.209 128.785 154.165 127.153 159.258C124.125 168.742 128.096 183.649 128.134 183.785C128.227 184.132 128.249 184.494 128.2 184.85C128.15 185.206 128.03 185.548 127.846 185.856C127.663 186.165 127.419 186.434 127.13 186.646C126.84 186.859 126.512 187.012 126.162 187.096C125.457 187.283 124.706 187.187 124.07 186.828C123.435 186.468 122.966 185.874 122.763 185.173C122.581 184.493 118.34 168.593 121.838 157.633C125.647 145.757 137.404 133.785 155.094 133.785C163.269 133.785 170.993 136.564 177.44 141.811C182.432 145.893 186.51 151.375 188.643 156.855C191.355 163.851 190.628 171.704 186.795 176.834C184.241 180.255 180.604 182.044 176.575 181.85C166.079 181.324 164.192 173.997 162.817 168.653C161.403 163.171 160.497 160.528 155.094 160.528C152.126 160.528 150.042 161.344 148.745 163.035C146.976 165.348 146.838 168.963 147.034 171.586C147.163 173.414 147.473 175.224 147.959 176.99C148.391 178.078 154.012 191.865 167.476 195.201C167.824 195.283 168.152 195.434 168.441 195.644C168.73 195.855 168.975 196.12 169.161 196.426C169.346 196.732 169.469 197.071 169.523 197.425C169.576 197.778 169.558 198.139 169.471 198.486C169.307 199.071 168.956 199.587 168.471 199.954C167.986 200.321 167.395 200.52 166.786 200.519Z" fill="white"/>
<path d="M145.167 199.275C144.789 199.276 144.415 199.201 144.067 199.054C143.72 198.907 143.405 198.692 143.142 198.421C136.401 191.346 132.588 183.435 131.154 173.544V173.491C130.348 166.943 131.527 157.671 137.305 151.297C141.569 146.593 147.565 144.203 155.093 144.203C163.996 144.203 170.992 148.342 175.355 156.155C178.52 161.831 179.148 167.487 179.164 167.719C179.197 168.077 179.16 168.438 179.053 168.782C178.947 169.125 178.773 169.444 178.543 169.72C178.313 169.997 178.031 170.225 177.713 170.392C177.394 170.559 177.046 170.662 176.688 170.694C175.966 170.772 175.241 170.564 174.671 170.113C174.102 169.661 173.732 169.004 173.642 168.283C173.165 164.89 172.066 161.613 170.403 158.617C167.021 152.65 161.877 149.617 155.073 149.617C149.195 149.617 144.597 151.386 141.433 154.878C136.873 159.912 135.991 167.666 136.617 172.796C137.874 181.543 141.236 188.502 147.171 194.72C147.419 194.978 147.612 195.283 147.74 195.617C147.867 195.951 147.926 196.307 147.913 196.664C147.901 197.021 147.816 197.372 147.665 197.696C147.514 198.02 147.299 198.31 147.033 198.55C146.522 199.013 145.857 199.272 145.167 199.275Z" fill="white"/>
<path d="M176.221 191.482C170.326 191.482 165.314 189.85 161.303 186.604C153.245 180.112 152.342 169.538 152.302 169.092C152.245 168.36 152.482 167.635 152.96 167.077C153.437 166.519 154.117 166.173 154.85 166.116C155.582 166.06 156.307 166.296 156.865 166.774C157.423 167.252 157.769 167.932 157.826 168.664C157.846 168.82 158.651 177.469 164.862 182.45C168.537 185.385 173.449 186.55 179.503 185.87C180.226 185.782 180.955 185.984 181.53 186.432C182.105 186.88 182.479 187.538 182.57 188.261C182.61 188.618 182.578 188.979 182.476 189.324C182.375 189.669 182.206 189.99 181.979 190.268C181.752 190.547 181.472 190.777 181.154 190.947C180.837 191.116 180.49 191.22 180.132 191.254C178.834 191.405 177.528 191.481 176.221 191.482ZM180.88 119.396C178.579 117.9 170.424 113.448 155.088 113.448C138.991 113.448 130.815 118.366 129.007 119.616C128.887 119.689 128.776 119.774 128.673 119.87C128.662 119.88 128.648 119.887 128.633 119.888C128.344 120.14 128.113 120.451 127.953 120.8C127.794 121.148 127.711 121.527 127.71 121.91C127.715 122.27 127.791 122.625 127.933 122.955C128.075 123.285 128.281 123.583 128.539 123.834C128.797 124.084 129.102 124.281 129.436 124.413C129.771 124.545 130.128 124.61 130.487 124.604C131.063 124.604 131.625 124.427 132.098 124.098C132.176 124.04 139.212 118.87 155.094 118.87C170.975 118.87 178.05 124.022 178.126 124.06C178.609 124.418 179.195 124.609 179.797 124.604C180.156 124.61 180.513 124.544 180.848 124.411C181.182 124.278 181.487 124.081 181.744 123.83C182.002 123.579 182.208 123.28 182.349 122.949C182.491 122.618 182.566 122.263 182.57 121.903C182.57 121.364 182.409 120.838 182.108 120.391C181.807 119.945 181.379 119.598 180.88 119.396Z" fill="white"/>
<path fill-rule="evenodd" clip-rule="evenodd" d="M155.085 229.639C195.21 229.639 227.738 197.111 227.738 156.986C227.738 150.774 226.958 144.744 225.491 138.988C225.311 138.241 225.118 137.499 224.915 136.761C251.112 145.377 270.026 170.05 270.026 199.143C270.026 212.815 265.849 225.511 258.702 236.023L289.806 267.142C294.931 272.269 294.931 280.583 289.806 285.711C284.681 290.839 276.371 290.839 271.246 285.711L239.913 254.363C229.678 260.965 217.489 264.795 204.406 264.795C178.942 264.795 156.865 250.284 145.987 229.075C148.967 229.448 152.004 229.639 155.085 229.639Z" fill="#171C60"/>
<path fill-rule="evenodd" clip-rule="evenodd" d="M293.858 1.19386C293.858 -5.01105 298.888 -10.0411 305.093 -10.0411L350.033 -10.0411C368.648 -10.0411 383.738 5.0491 383.738 23.6639L383.738 68.6039C383.738 74.8088 378.708 79.8389 372.503 79.8389C366.298 79.8389 361.268 74.8088 361.268 68.6039L361.268 23.6639C361.268 17.4589 356.238 12.4289 350.033 12.4289L305.093 12.4289C298.888 12.4289 293.858 7.39879 293.858 1.19386Z" fill="#FF8833"/>
<path fill-rule="evenodd" clip-rule="evenodd" d="M-0.499008 79.8389C-6.70393 79.8389 -11.734 74.8088 -11.734 68.6039L-11.734 23.6639C-11.734 5.0491 3.35624 -10.0411 21.971 -10.0411L66.911 -10.0411C73.1159 -10.0411 78.146 -5.01105 78.146 1.19386C78.146 7.39879 73.1159 12.4289 66.911 12.4289L21.971 12.4289C15.7661 12.4289 10.736 17.4589 10.736 23.6639L10.736 68.6039C10.736 74.8088 5.70592 79.8389 -0.499008 79.8389Z" fill="#FF8833"/>
<path fill-rule="evenodd" clip-rule="evenodd" d="M372.503 297.049C378.708 297.049 383.738 302.079 383.738 308.284V353.224C383.738 371.839 368.648 386.929 350.033 386.929H305.093C298.888 386.929 293.858 381.899 293.858 375.694C293.858 369.489 298.888 364.459 305.093 364.459H350.033C356.238 364.459 361.268 359.429 361.268 353.224V308.284C361.268 302.079 366.298 297.049 372.503 297.049Z" fill="#FF8833"/>
<path fill-rule="evenodd" clip-rule="evenodd" d="M79.644 375.694C79.644 381.899 74.614 386.929 68.409 386.929L23.469 386.929C4.85428 386.929 -10.236 371.839 -10.236 353.224L-10.236 308.284C-10.236 302.079 -5.20588 297.049 0.999039 297.049C7.20396 297.049 12.234 302.079 12.234 308.284L12.234 353.224C12.234 359.429 17.2641 364.459 23.469 364.459L68.409 364.459C74.614 364.459 79.644 369.489 79.644 375.694Z" fill="#FF8833"/>
</g>
<defs>
<clipPath id="clip0_1_1740">
<rect x="0.25" y="0.445312" width="374.5" height="374.5" rx="23.968" fill="white"/>
</clipPath>
</defs>
</svg>
