<svg width="375" height="375" viewBox="0 0 375 375" fill="none" xmlns="http://www.w3.org/2000/svg">
<g clip-path="url(#clip0_301_702)">
<rect x="0.25" y="0.195312" width="374.5" height="374.5" rx="23.968" fill="white"/>
<path d="M187.292 100.861C138.947 100.861 97.6608 128.503 80.9336 167.522C97.6608 206.541 138.947 234.183 187.292 234.183C235.636 234.183 276.922 206.541 293.65 167.522C276.922 128.503 235.636 100.861 187.292 100.861ZM187.292 211.963C160.605 211.963 138.947 192.054 138.947 167.522C138.947 142.991 160.605 123.082 187.292 123.082C213.978 123.082 235.636 142.991 235.636 167.522C235.636 192.054 213.978 211.963 187.292 211.963Z" fill="#A3BBDC"/>
<path fill-rule="evenodd" clip-rule="evenodd" d="M190.48 101.069C190.245 101.06 190.013 101.051 189.784 101.042C178.25 100.881 168.508 102.08 160.388 103.852C142.116 107.839 127.761 122.427 123.726 140.688C121.825 149.291 120.818 158.274 120.818 167.515C120.818 215.86 148.382 257.146 187.292 273.873C226.201 257.146 253.765 215.86 253.765 167.515C253.765 158.285 252.761 149.312 250.864 140.718C246.829 122.437 232.383 108.017 214.127 103.873C204.149 101.609 196.361 101.301 190.48 101.069ZM187.216 123.476C162.21 123.476 139.098 140.716 139.098 167.515C139.098 194.314 162.21 211.97 187.216 211.97C212.222 211.97 235.334 194.314 235.334 167.515C235.334 140.716 212.222 123.476 187.216 123.476Z" fill="#1956A8"/>
<path d="M158.209 167.515C158.209 152.802 171.166 140.926 187.216 140.926C203.267 140.926 216.223 152.802 216.223 167.515C216.223 182.228 203.267 194.105 187.216 194.105C171.166 194.105 158.209 182.228 158.209 167.515Z" fill="#FFA05C"/>
<path d="M133.173 221.353C149.278 229.345 167.706 233.882 187.292 233.882C206.877 233.882 225.305 229.345 241.41 221.353C229.72 245.134 210.529 263.883 187.292 273.873C164.054 263.883 144.863 245.134 133.173 221.353Z" fill="#144586"/>
<path fill-rule="evenodd" clip-rule="evenodd" d="M293.858 0.943863C293.858 -5.26105 298.888 -10.2911 305.093 -10.2911L350.033 -10.2911C368.648 -10.2911 383.738 4.7991 383.738 23.4139L383.738 68.3539C383.738 74.5588 378.708 79.5889 372.503 79.5889C366.298 79.5889 361.268 74.5588 361.268 68.3539L361.268 23.4139C361.268 17.2089 356.238 12.1789 350.033 12.1789L305.093 12.1789C298.888 12.1789 293.858 7.14879 293.858 0.943863Z" fill="#FF8833"/>
<path fill-rule="evenodd" clip-rule="evenodd" d="M-0.499008 79.5889C-6.70393 79.5889 -11.734 74.5588 -11.734 68.3539L-11.734 23.4139C-11.734 4.7991 3.35624 -10.2911 21.971 -10.2911L66.911 -10.2911C73.1159 -10.2911 78.146 -5.26105 78.146 0.943863C78.146 7.14879 73.1159 12.1789 66.911 12.1789L21.971 12.1789C15.7661 12.1789 10.736 17.2089 10.736 23.4139L10.736 68.3539C10.736 74.5588 5.70592 79.5889 -0.499008 79.5889Z" fill="#FF8833"/>
<path fill-rule="evenodd" clip-rule="evenodd" d="M372.503 296.8C378.708 296.8 383.738 301.83 383.738 308.035V352.975C383.738 371.59 368.648 386.68 350.033 386.68H305.093C298.888 386.68 293.858 381.65 293.858 375.445C293.858 369.24 298.888 364.21 305.093 364.21H350.033C356.238 364.21 361.268 359.18 361.268 352.975V308.035C361.268 301.83 366.298 296.8 372.503 296.8Z" fill="#FF8833"/>
<path fill-rule="evenodd" clip-rule="evenodd" d="M79.644 375.445C79.644 381.65 74.614 386.68 68.409 386.68L23.469 386.68C4.85428 386.68 -10.236 371.59 -10.236 352.975L-10.236 308.035C-10.236 301.83 -5.20588 296.8 0.999039 296.8C7.20396 296.8 12.234 301.83 12.234 308.035L12.234 352.975C12.234 359.18 17.2641 364.21 23.469 364.21L68.409 364.21C74.614 364.21 79.644 369.24 79.644 375.445Z" fill="#FF8833"/>
</g>
<defs>
<clipPath id="clip0_301_702">
<rect x="0.25" y="0.195312" width="374.5" height="374.5" rx="23.968" fill="white"/>
</clipPath>
</defs>
</svg>
