<svg width="65" height="65" viewBox="0 0 65 65" fill="none" xmlns="http://www.w3.org/2000/svg">
<rect x="0.5" y="0.446289" width="64" height="64" rx="32" fill="#F6F7F9"/>
<path fill-rule="evenodd" clip-rule="evenodd" d="M40.2126 48.316C38.0494 48.2364 31.9188 47.3892 25.4982 40.9701C19.0792 34.5496 18.2334 28.4205 18.1523 26.2558C18.0321 22.9569 20.5589 19.7526 23.4777 18.5012C23.8292 18.3495 24.2141 18.2917 24.5947 18.3336C24.9752 18.3754 25.3384 18.5155 25.6485 18.7401C28.052 20.4917 29.7105 23.1416 31.1346 25.2252C31.4479 25.683 31.5819 26.2401 31.511 26.7903C31.4401 27.3405 31.1692 27.8453 30.75 28.2087L27.8192 30.3854C27.6776 30.4877 27.5779 30.6378 27.5387 30.808C27.4994 30.9782 27.5233 31.1569 27.6059 31.3108C28.2698 32.5171 29.4506 34.3137 30.8026 35.6658C32.1561 37.0178 34.0369 38.2766 35.3273 39.0157C35.4891 39.1066 35.6796 39.1319 35.8595 39.0867C36.0394 39.0414 36.1952 38.9289 36.2948 38.7724L38.2026 35.8686C38.5534 35.4026 39.0708 35.0905 39.6465 34.9975C40.2222 34.9046 40.8116 35.038 41.2912 35.3698C43.4048 36.833 45.8715 38.4629 47.6772 40.7748C47.92 41.0872 48.0744 41.459 48.1244 41.8514C48.1743 42.2438 48.1179 42.6425 47.9611 43.0057C46.7037 45.9395 43.522 48.4377 40.2126 48.316Z" fill="#FF8833"/>
</svg>
