<svg width="65" height="65" viewBox="0 0 65 65" fill="none" xmlns="http://www.w3.org/2000/svg">
<path d="M0.680176 54.4252C0.680176 43.077 9.87974 33.8774 21.228 33.8774C32.5762 33.8774 41.7758 43.077 41.7758 54.4252V57.4399H0.680176V54.4252Z" fill="#5E89C2"/>
<path d="M23.4409 54.4252C23.4409 43.077 32.6405 33.8774 43.9887 33.8774C55.337 33.8774 64.5365 43.077 64.5365 54.4252V57.4399H23.4409V54.4252Z" fill="#1956A8"/>
<path fill-rule="evenodd" clip-rule="evenodd" d="M23.4409 57.4394H41.7572V54.4247C41.7572 47.2894 38.1203 41.0036 32.5991 37.3198C27.0779 41.0036 23.4409 47.2894 23.4409 54.4247V57.4394Z" fill="#FFA05C"/>
<ellipse cx="21.0838" cy="18.6543" rx="10.5482" ry="11.1998" fill="#5E89C2"/>
<ellipse cx="43.8821" cy="18.6543" rx="10.5482" ry="11.1998" fill="#1956A8"/>
</svg>
