<svg width="65" height="65" viewBox="0 0 65 65" fill="none" xmlns="http://www.w3.org/2000/svg">
<rect x="0.166626" y="0.445312" width="64" height="64" rx="32" fill="#F6F7F9"/>
<path d="M46.5337 25.2237C46.363 24.5895 46.0287 24.0113 45.5643 23.5468C45.0999 23.0824 44.5216 22.7481 43.8874 22.5774C41.5518 21.9453 32.1666 21.9453 32.1666 21.9453C32.1666 21.9453 22.7814 21.9453 20.4458 22.5774C19.8116 22.7481 19.2334 23.0824 18.769 23.5468C18.3045 24.0113 17.9702 24.5895 17.7995 25.2237C17.3634 27.6057 17.1518 30.0233 17.1674 32.4447C17.1518 34.8662 17.3634 37.2838 17.7995 39.6658C17.9702 40.3 18.3045 40.8782 18.769 41.3427C19.2334 41.8071 19.8116 42.1414 20.4458 42.3121C22.7814 42.9442 32.1666 42.9442 32.1666 42.9442C32.1666 42.9442 41.5518 42.9442 43.8874 42.3121C44.5216 42.1414 45.0999 41.8071 45.5643 41.3427C46.0287 40.8782 46.363 40.3 46.5337 39.6658C46.9698 37.2838 47.1814 34.8662 47.1658 32.4447C47.1814 30.0233 46.9698 27.6057 46.5337 25.2237ZM29.1668 36.9445V27.945L36.9557 32.4447L29.1668 36.9445Z" fill="#1956A8"/>
</svg>
