<svg width="24" height="25" viewBox="0 0 24 25" fill="none" xmlns="http://www.w3.org/2000/svg">
<path fill-rule="evenodd" clip-rule="evenodd" d="M2.89861e-06 12.8144C2.60358e-06 12.2621 0.447718 11.8144 1 11.8144L23 11.8144C23.5523 11.8144 24 12.2621 24 12.8144L24 13.2144C24 13.7667 23.5523 14.2144 23 14.2144L1 14.2144C0.447718 14.2144 2.85647e-06 13.7667 2.60358e-06 13.2144L2.89861e-06 12.8144Z" fill="#171C60"/>
<path fill-rule="evenodd" clip-rule="evenodd" d="M12.0485 24.7659C11.4963 24.7659 11.0485 24.3181 11.0485 23.7659L11.0486 1.76586C11.0486 1.21357 11.4963 0.765857 12.0485 0.765857L12.4486 0.765857C13.0008 0.765857 13.4486 1.21357 13.4486 1.76586L13.4485 23.7659C13.4485 24.3181 13.0008 24.7659 12.4485 24.7659H12.0485Z" fill="#171C60"/>
</svg>
