<svg width="19" height="19" viewBox="0 0 19 19" fill="none" xmlns="http://www.w3.org/2000/svg">
<path fill-rule="evenodd" clip-rule="evenodd" d="M0.578458 18.256C0.187934 17.8655 0.187934 17.2324 0.578458 16.8418L16.1348 1.28549C16.5253 0.894964 17.1585 0.894964 17.549 1.28549L17.8319 1.56833C18.2224 1.95886 18.2224 2.59202 17.8319 2.98254L2.27551 18.5389C1.88499 18.9294 1.25182 18.9294 0.8613 18.5389L0.578458 18.256Z" fill="#FF7551"/>
<path fill-rule="evenodd" clip-rule="evenodd" d="M17.549 18.1874C17.1585 18.5779 16.5253 18.5779 16.1348 18.1874L0.578445 2.63103C0.18792 2.24051 0.18792 1.60734 0.578444 1.21682L0.861287 0.933975C1.25181 0.54345 1.88498 0.543451 2.2755 0.933975L17.8318 16.4903C18.2224 16.8809 18.2224 17.514 17.8318 17.9045L17.549 18.1874Z" fill="#FF7551"/>
</svg>
