<svg width="46" height="31" viewBox="0 0 46 31" fill="none" xmlns="http://www.w3.org/2000/svg">
<path fill-rule="evenodd" clip-rule="evenodd" d="M8.85685 7.0061C9.57384 6.83283 10.3067 6.7456 11.0419 6.74603C16.8638 6.74603 21.582 12.1381 21.582 18.7868C21.582 25.4376 16.8638 30.8296 11.0419 30.8296C5.22004 30.8296 0.5 25.4396 0.5 18.7868C0.5 18.5923 0.503722 18.3957 0.513028 18.2012H0.5C0.5 8.16551 7.64706 0 16.432 0V4.04206C13.5825 4.04206 10.9544 5.14985 8.85685 7.0061ZM32.4459 7.0061C33.1494 6.83537 33.879 6.74603 34.6272 6.74603C40.4491 6.74603 45.1691 12.1381 45.1691 18.7868C45.1691 25.4376 40.4491 30.8296 34.6272 30.8296C28.8053 30.8296 24.0872 25.4396 24.0872 18.7868C24.0872 18.5923 24.0909 18.3957 24.1002 18.2012H24.0872C24.0872 8.16551 31.2342 0 40.0191 0V4.04206C37.1678 4.04206 34.5434 5.14985 32.4459 7.0061Z" fill="#FF8833"/>
</svg>
